# meters; x right, y down, z away
mtllib shirt_material.mtl
usemtl shirt
v -0.332021 -0.359516 -0.048400
v -0.326117 -0.359103 -0.048400
v -0.328007 -0.375476 -0.048400
v -0.326452 -0.379489 -0.048400
v -0.310349 -0.362653 -0.048400
v -0.287817 -0.359373 -0.048400
v -0.321698 -0.397673 -0.048400
v -0.303500 -0.401443 -0.048400
v -0.287397 -0.384607 -0.048400
v -0.271293 -0.367771 -0.048400
v -0.315388 -0.419870 -0.048400
v -0.252974 -0.360377 -0.048400
v -0.312234 -0.430968 -0.048400
v -0.296652 -0.440233 -0.048400
v -0.280548 -0.423397 -0.048400
v -0.264445 -0.406561 -0.048400
v -0.248341 -0.389725 -0.048400
v -0.232237 -0.372890 -0.048400
v -0.214675 -0.360648 -0.048400
v -0.303628 -0.459402 -0.048400
v -0.299615 -0.475362 -0.048400
v -0.184727 -0.361011 -0.048400
v -0.289804 -0.479023 -0.048400
v -0.273700 -0.462187 -0.048400
v -0.257596 -0.445351 -0.048400
v -0.241493 -0.428515 -0.048400
v -0.225389 -0.411680 -0.048400
v -0.209285 -0.394844 -0.048400
v -0.193181 -0.378008 -0.048400
v -0.293305 -0.497559 -0.048400
v -0.180284 -0.379401 -0.048400
v -0.290150 -0.508658 -0.048400
v -0.182853 -0.392712 -0.046916
v -0.285214 -0.511368 -0.044588
v -0.271324 -0.493484 -0.044588
v -0.257433 -0.475601 -0.044588
v -0.243542 -0.457717 -0.044588
v -0.229652 -0.439834 -0.044588
v -0.215761 -0.421951 -0.044588
v -0.201870 -0.404067 -0.044588
v -0.284737 -0.517540 -0.041078
v -0.266600 -0.517563 -0.040056
v -0.220134 -0.373168 -0.040056
v -0.261885 -0.516373 -0.041514
v -0.255977 -0.494831 -0.041514
v -0.250069 -0.473290 -0.041514
v -0.244160 -0.451748 -0.041514
v -0.238252 -0.430207 -0.041514
v -0.232344 -0.408665 -0.041514
v -0.226436 -0.387123 -0.041514
v -0.220306 -0.316077 -0.049223
v -0.218150 -0.292812 -0.049223
v -0.215994 -0.269548 -0.049223
v -0.213972 -0.247738 -0.049223
v -0.211816 -0.224474 -0.049223
v -0.209660 -0.201210 -0.049223
v -0.207504 -0.177946 -0.049223
v -0.205348 -0.154682 -0.049223
v -0.203192 -0.131418 -0.049223
v -0.201036 -0.108154 -0.049223
v -0.198880 -0.084890 -0.049223
v -0.196724 -0.061626 -0.049223
v -0.194568 -0.038362 -0.049223
v -0.192412 -0.015097 -0.049223
v -0.235304 -0.511460 -0.050434
v -0.213815 -0.501362 -0.058477
v -0.212062 -0.478065 -0.058477
v -0.210309 -0.454767 -0.058477
v -0.208555 -0.431470 -0.058477
v -0.206802 -0.408172 -0.058477
v -0.205049 -0.384875 -0.058477
v -0.203296 -0.361577 -0.058477
v -0.201543 -0.338280 -0.058477
v -0.199790 -0.314982 -0.058477
v -0.198036 -0.291685 -0.058477
v -0.196283 -0.268387 -0.058477
v -0.194530 -0.245090 -0.058477
v -0.192777 -0.221792 -0.058477
v -0.191024 -0.198495 -0.058477
v -0.189271 -0.175197 -0.058477
v -0.187518 -0.151900 -0.058477
v -0.185764 -0.128602 -0.058477
v -0.184011 -0.105305 -0.058477
v -0.182258 -0.082007 -0.058477
v -0.180505 -0.058710 -0.058477
v -0.178752 -0.035412 -0.058477
v -0.176999 -0.012115 -0.058477
v -0.175481 -0.000496 -0.058746
v -0.209036 -0.523139 -0.060534
v -0.195550 -0.528978 -0.064605
v -0.172174 -0.524659 -0.070543
v -0.171052 -0.501362 -0.070543
v -0.169649 -0.478065 -0.070543
v -0.168247 -0.454767 -0.070543
v -0.166844 -0.431470 -0.070543
v -0.165442 -0.408172 -0.070543
v -0.164039 -0.384875 -0.070543
v -0.162637 -0.361577 -0.070543
v -0.161234 -0.338280 -0.070543
v -0.159832 -0.314982 -0.070543
v -0.158429 -0.291685 -0.070543
v -0.157027 -0.268387 -0.070543
v -0.155624 -0.245090 -0.070543
v -0.154222 -0.221792 -0.070543
v -0.152819 -0.198495 -0.070543
v -0.151417 -0.175197 -0.070543
v -0.150014 -0.151900 -0.070543
v -0.148612 -0.128602 -0.070543
v -0.147209 -0.105305 -0.070543
v -0.145806 -0.082007 -0.070543
v -0.144404 -0.058710 -0.070543
v -0.143001 -0.035412 -0.070543
v -0.141599 -0.012115 -0.070543
v -0.171275 -0.531898 -0.070747
v -0.140164 -0.000496 -0.070747
v -0.129130 -0.524659 -0.078659
v -0.128289 -0.501362 -0.078659
v -0.127237 -0.478065 -0.078659
v -0.126185 -0.454767 -0.078659
v -0.125133 -0.431470 -0.078659
v -0.124081 -0.408172 -0.078659
v -0.123029 -0.384875 -0.078659
v -0.121978 -0.361577 -0.078659
v -0.120926 -0.338280 -0.078659
v -0.119874 -0.314982 -0.078659
v -0.118822 -0.291685 -0.078659
v -0.117770 -0.268387 -0.078659
v -0.116718 -0.245090 -0.078659
v -0.115666 -0.221792 -0.078659
v -0.114614 -0.198495 -0.078659
v -0.113562 -0.175197 -0.078659
v -0.112511 -0.151900 -0.078659
v -0.111459 -0.128602 -0.078659
v -0.110407 -0.105305 -0.078659
v -0.109355 -0.082007 -0.078659
v -0.108303 -0.058710 -0.078659
v -0.107251 -0.035412 -0.078659
v -0.106199 -0.012115 -0.078659
v -0.128119 -0.531898 -0.078813
v -0.104847 -0.000496 -0.078813
v -0.086087 -0.524659 -0.083977
v -0.085526 -0.501362 -0.083977
v -0.084825 -0.478065 -0.083977
v -0.084123 -0.454767 -0.083977
v -0.083422 -0.431470 -0.083977
v -0.082721 -0.408172 -0.083977
v -0.082020 -0.384875 -0.083977
v -0.081318 -0.361577 -0.083977
v -0.080617 -0.338280 -0.083977
v -0.079916 -0.314982 -0.083977
v -0.079215 -0.291685 -0.083977
v -0.078513 -0.268387 -0.083977
v -0.077812 -0.245090 -0.083977
v -0.077111 -0.221792 -0.083977
v -0.076410 -0.198495 -0.083977
v -0.075708 -0.175197 -0.083977
v -0.075007 -0.151900 -0.083977
v -0.074306 -0.128602 -0.083977
v -0.073605 -0.105305 -0.083977
v -0.072903 -0.082007 -0.083977
v -0.072202 -0.058710 -0.083977
v -0.071501 -0.035412 -0.083977
v -0.070799 -0.012115 -0.083977
v -0.084963 -0.531898 -0.084083
v -0.069530 -0.000496 -0.084083
v -0.074174 -0.520219 -0.085031
v -0.054846 -0.496861 -0.086363
v -0.042412 -0.478065 -0.087012
v -0.042062 -0.454767 -0.087012
v -0.041711 -0.431470 -0.087012
v -0.041360 -0.408172 -0.087012
v -0.041010 -0.384875 -0.087012
v -0.040659 -0.361577 -0.087012
v -0.040309 -0.338280 -0.087012
v -0.039958 -0.314982 -0.087012
v -0.039607 -0.291685 -0.087012
v -0.039257 -0.268387 -0.087012
v -0.038906 -0.245090 -0.087012
v -0.038555 -0.221792 -0.087012
v -0.038205 -0.198495 -0.087012
v -0.037854 -0.175197 -0.087012
v -0.037503 -0.151900 -0.087012
v -0.037153 -0.128602 -0.087012
v -0.036802 -0.105305 -0.087012
v -0.036452 -0.082007 -0.087012
v -0.036101 -0.058710 -0.087012
v -0.035750 -0.035412 -0.087012
v -0.035400 -0.012115 -0.087012
v -0.034213 -0.000496 -0.087068
v 0.000000 -0.478065 -0.088000
v 0.000000 -0.454767 -0.088000
v 0.000000 -0.431470 -0.088000
v 0.000000 -0.408172 -0.088000
v 0.000000 -0.384875 -0.088000
v 0.000000 -0.361577 -0.088000
v 0.000000 -0.338280 -0.088000
v 0.000000 -0.314982 -0.088000
v 0.000000 -0.291685 -0.088000
v 0.000000 -0.268387 -0.088000
v 0.000000 -0.245090 -0.088000
v 0.000000 -0.221792 -0.088000
v 0.000000 -0.198495 -0.088000
v 0.000000 -0.175197 -0.088000
v 0.000000 -0.151900 -0.088000
v 0.000000 -0.128602 -0.088000
v 0.000000 -0.105305 -0.088000
v 0.000000 -0.082007 -0.088000
v 0.000000 -0.058710 -0.088000
v 0.000000 -0.035412 -0.088000
v 0.000000 -0.012115 -0.088000
v 0.001336 -0.492481 -0.087999
v 0.001104 -0.000496 -0.087999
v 0.034213 -0.000496 -0.087068
v 0.042412 -0.478065 -0.087012
v 0.042062 -0.454767 -0.087012
v 0.041711 -0.431470 -0.087012
v 0.041360 -0.408172 -0.087012
v 0.041010 -0.384875 -0.087012
v 0.040659 -0.361577 -0.087012
v 0.040309 -0.338280 -0.087012
v 0.039958 -0.314982 -0.087012
v 0.039607 -0.291685 -0.087012
v 0.039257 -0.268387 -0.087012
v 0.038906 -0.245090 -0.087012
v 0.038555 -0.221792 -0.087012
v 0.038205 -0.198495 -0.087012
v 0.037854 -0.175197 -0.087012
v 0.037504 -0.151900 -0.087012
v 0.037153 -0.128602 -0.087012
v 0.036802 -0.105305 -0.087012
v 0.036452 -0.082007 -0.087012
v 0.036101 -0.058710 -0.087012
v 0.035750 -0.035412 -0.087012
v 0.035400 -0.012115 -0.087012
v 0.052171 -0.496861 -0.086520
v 0.071477 -0.520219 -0.085247
v 0.082266 -0.531898 -0.084334
v 0.084963 -0.531898 -0.084083
v 0.069530 -0.000496 -0.084083
v 0.086087 -0.524659 -0.083977
v 0.085526 -0.501362 -0.083977
v 0.084825 -0.478065 -0.083977
v 0.084123 -0.454767 -0.083977
v 0.083422 -0.431470 -0.083977
v 0.082721 -0.408172 -0.083977
v 0.082020 -0.384875 -0.083977
v 0.081318 -0.361577 -0.083977
v 0.080617 -0.338280 -0.083977
v 0.079916 -0.314982 -0.083977
v 0.079215 -0.291685 -0.083977
v 0.078513 -0.268387 -0.083977
v 0.077812 -0.245090 -0.083977
v 0.077111 -0.221792 -0.083977
v 0.076410 -0.198495 -0.083977
v 0.075708 -0.175197 -0.083977
v 0.075007 -0.151900 -0.083977
v 0.074306 -0.128602 -0.083977
v 0.073604 -0.105305 -0.083977
v 0.072903 -0.082007 -0.083977
v 0.072202 -0.058710 -0.083977
v 0.071501 -0.035412 -0.083977
v 0.070799 -0.012115 -0.083977
v 0.128119 -0.531898 -0.078813
v 0.104847 -0.000496 -0.078813
v 0.129130 -0.524659 -0.078659
v 0.128289 -0.501362 -0.078659
v 0.127237 -0.478065 -0.078659
v 0.126185 -0.454767 -0.078659
v 0.125133 -0.431470 -0.078659
v 0.124081 -0.408172 -0.078659
v 0.123029 -0.384875 -0.078659
v 0.121978 -0.361577 -0.078659
v 0.120926 -0.338280 -0.078659
v 0.119874 -0.314982 -0.078659
v 0.118822 -0.291685 -0.078659
v 0.117770 -0.268387 -0.078659
v 0.116718 -0.245090 -0.078659
v 0.115666 -0.221792 -0.078659
v 0.114614 -0.198495 -0.078659
v 0.113562 -0.175197 -0.078659
v 0.112511 -0.151900 -0.078659
v 0.111459 -0.128602 -0.078659
v 0.110407 -0.105305 -0.078659
v 0.109355 -0.082007 -0.078659
v 0.108303 -0.058710 -0.078659
v 0.107251 -0.035412 -0.078659
v 0.106199 -0.012115 -0.078659
v 0.171275 -0.531898 -0.070747
v 0.140164 -0.000496 -0.070747
v 0.172174 -0.524659 -0.070543
v 0.171052 -0.501362 -0.070543
v 0.169649 -0.478065 -0.070543
v 0.168247 -0.454767 -0.070543
v 0.166844 -0.431470 -0.070543
v 0.165442 -0.408172 -0.070543
v 0.164039 -0.384875 -0.070543
v 0.162637 -0.361577 -0.070543
v 0.161234 -0.338280 -0.070543
v 0.159832 -0.314982 -0.070543
v 0.158429 -0.291685 -0.070543
v 0.157027 -0.268387 -0.070543
v 0.155624 -0.245090 -0.070543
v 0.154222 -0.221792 -0.070543
v 0.152819 -0.198495 -0.070543
v 0.151417 -0.175197 -0.070543
v 0.150014 -0.151900 -0.070543
v 0.148612 -0.128602 -0.070543
v 0.147209 -0.105305 -0.070543
v 0.145806 -0.082007 -0.070543
v 0.144404 -0.058710 -0.070543
v 0.143001 -0.035412 -0.070543
v 0.141599 -0.012115 -0.070543
v 0.209036 -0.521679 -0.060534
v 0.175481 -0.000496 -0.058746
v 0.213815 -0.501362 -0.058477
v 0.212062 -0.478065 -0.058477
v 0.210309 -0.454767 -0.058477
v 0.208555 -0.431470 -0.058477
v 0.206802 -0.408172 -0.058477
v 0.205049 -0.384875 -0.058477
v 0.203296 -0.361577 -0.058477
v 0.201543 -0.338280 -0.058477
v 0.199790 -0.314982 -0.058477
v 0.198036 -0.291685 -0.058477
v 0.196283 -0.268387 -0.058477
v 0.194530 -0.245090 -0.058477
v 0.192777 -0.221792 -0.058477
v 0.191024 -0.198495 -0.058477
v 0.189271 -0.175197 -0.058477
v 0.187518 -0.151900 -0.058477
v 0.185764 -0.128602 -0.058477
v 0.184011 -0.105305 -0.058477
v 0.182258 -0.082007 -0.058477
v 0.180505 -0.058710 -0.058477
v 0.178752 -0.035412 -0.058477
v 0.176999 -0.012115 -0.058477
v 0.219040 -0.314374 -0.050434
v 0.217113 -0.291015 -0.050434
v 0.215185 -0.267657 -0.050434
v 0.213378 -0.245759 -0.050434
v 0.211451 -0.222400 -0.050434
v 0.209523 -0.199042 -0.050434
v 0.207595 -0.175684 -0.050434
v 0.205668 -0.152325 -0.050434
v 0.203740 -0.128967 -0.050434
v 0.201813 -0.105609 -0.050434
v 0.199885 -0.082250 -0.050434
v 0.197958 -0.058892 -0.050434
v 0.196030 -0.035534 -0.050434
v 0.194103 -0.012176 -0.050434
v 0.193139 -0.000496 -0.050434
v 0.260731 -0.514507 -0.041736
v 0.255977 -0.494831 -0.041514
v 0.250069 -0.473290 -0.041514
v 0.244160 -0.451748 -0.041514
v 0.238252 -0.430207 -0.041514
v 0.232344 -0.408665 -0.041514
v 0.226436 -0.387123 -0.041514
v 0.220732 -0.370123 -0.040869
v 0.282975 -0.516922 -0.040244
v 0.285214 -0.511368 -0.044588
v 0.271324 -0.493484 -0.044588
v 0.257433 -0.475601 -0.044588
v 0.243542 -0.457717 -0.044588
v 0.229652 -0.439834 -0.044588
v 0.215761 -0.421951 -0.044588
v 0.201870 -0.404067 -0.044588
v 0.185251 -0.391097 -0.046082
v 0.292296 -0.496504 -0.048400
v 0.289804 -0.479023 -0.048400
v 0.273700 -0.462187 -0.048400
v 0.257596 -0.445351 -0.048400
v 0.241493 -0.428515 -0.048400
v 0.225389 -0.411680 -0.048400
v 0.209285 -0.394844 -0.048400
v 0.193181 -0.378008 -0.048400
v 0.183288 -0.362387 -0.048400
v 0.188183 -0.361745 -0.048400
v 0.213237 -0.362023 -0.048400
v 0.304486 -0.454541 -0.048400
v 0.296652 -0.440233 -0.048400
v 0.280548 -0.423397 -0.048400
v 0.264445 -0.406561 -0.048400
v 0.248341 -0.389725 -0.048400
v 0.232237 -0.372890 -0.048400
v 0.226483 -0.361475 -0.048400
v 0.251536 -0.361753 -0.048400
v 0.314379 -0.418815 -0.048400
v 0.303500 -0.401443 -0.048400
v 0.287397 -0.384607 -0.048400
v 0.271293 -0.367771 -0.048400
v 0.267229 -0.360884 -0.048400
v 0.286379 -0.360749 -0.048400
v 0.305529 -0.360613 -0.048400
v 0.325131 -0.378227 -0.048400
v 0.310349 -0.362653 -0.048400
v 0.324678 -0.360478 -0.048400
v -0.332021 -0.359516 0.048400
v -0.326117 -0.359103 0.048400
v -0.328007 -0.375476 0.048400
v -0.326452 -0.379489 0.048400
v -0.310349 -0.362653 0.048400
v -0.287817 -0.359373 0.048400
v -0.321698 -0.397673 0.048400
v -0.303500 -0.401443 0.048400
v -0.287397 -0.384607 0.048400
v -0.271293 -0.367771 0.048400
v -0.315388 -0.419870 0.048400
v -0.252974 -0.360377 0.048400
v -0.312234 -0.430968 0.048400
v -0.296652 -0.440233 0.048400
v -0.280548 -0.423397 0.048400
v -0.264445 -0.406561 0.048400
v -0.248341 -0.389725 0.048400
v -0.232237 -0.372890 0.048400
v -0.214675 -0.360648 0.048400
v -0.303628 -0.459402 0.048400
v -0.299615 -0.475362 0.048400
v -0.184727 -0.361011 0.048400
v -0.289804 -0.479023 0.048400
v -0.273700 -0.462187 0.048400
v -0.257596 -0.445351 0.048400
v -0.241493 -0.428515 0.048400
v -0.225389 -0.411680 0.048400
v -0.209285 -0.394844 0.048400
v -0.193181 -0.378008 0.048400
v -0.293305 -0.497559 0.048400
v -0.180284 -0.379401 0.048400
v -0.290150 -0.508658 0.048400
v -0.182853 -0.392712 0.046916
v -0.285214 -0.511368 0.044588
v -0.271324 -0.493484 0.044588
v -0.257433 -0.475601 0.044588
v -0.243542 -0.457717 0.044588
v -0.229652 -0.439834 0.044588
v -0.215761 -0.421951 0.044588
v -0.201870 -0.404067 0.044588
v -0.284737 -0.517540 0.041078
v -0.266600 -0.517563 0.040056
v -0.220134 -0.373168 0.040056
v -0.261885 -0.516373 0.041514
v -0.255977 -0.494831 0.041514
v -0.250069 -0.473290 0.041514
v -0.244160 -0.451748 0.041514
v -0.238252 -0.430207 0.041514
v -0.232344 -0.408665 0.041514
v -0.226436 -0.387123 0.041514
v -0.220306 -0.316077 0.049223
v -0.218150 -0.292812 0.049223
v -0.215994 -0.269548 0.049223
v -0.213972 -0.247738 0.049223
v -0.211816 -0.224474 0.049223
v -0.209660 -0.201210 0.049223
v -0.207504 -0.177946 0.049223
v -0.205348 -0.154682 0.049223
v -0.203192 -0.131418 0.049223
v -0.201036 -0.108154 0.049223
v -0.198880 -0.084890 0.049223
v -0.196724 -0.061626 0.049223
v -0.194568 -0.038362 0.049223
v -0.192412 -0.015097 0.049223
v -0.235304 -0.511460 0.050434
v -0.213815 -0.501362 0.058477
v -0.212062 -0.478065 0.058477
v -0.210309 -0.454767 0.058477
v -0.208555 -0.431470 0.058477
v -0.206802 -0.408172 0.058477
v -0.205049 -0.384875 0.058477
v -0.203296 -0.361577 0.058477
v -0.201543 -0.338280 0.058477
v -0.199790 -0.314982 0.058477
v -0.198036 -0.291685 0.058477
v -0.196283 -0.268387 0.058477
v -0.194530 -0.245090 0.058477
v -0.192777 -0.221792 0.058477
v -0.191024 -0.198495 0.058477
v -0.189271 -0.175197 0.058477
v -0.187518 -0.151900 0.058477
v -0.185764 -0.128602 0.058477
v -0.184011 -0.105305 0.058477
v -0.182258 -0.082007 0.058477
v -0.180505 -0.058710 0.058477
v -0.178752 -0.035412 0.058477
v -0.176999 -0.012115 0.058477
v -0.175481 -0.000496 0.058746
v -0.209036 -0.523139 0.060534
v -0.195550 -0.528978 0.064605
v -0.172174 -0.524659 0.070543
v -0.171052 -0.501362 0.070543
v -0.169649 -0.478065 0.070543
v -0.168247 -0.454767 0.070543
v -0.166844 -0.431470 0.070543
v -0.165442 -0.408172 0.070543
v -0.164039 -0.384875 0.070543
v -0.162637 -0.361577 0.070543
v -0.161234 -0.338280 0.070543
v -0.159832 -0.314982 0.070543
v -0.158429 -0.291685 0.070543
v -0.157027 -0.268387 0.070543
v -0.155624 -0.245090 0.070543
v -0.154222 -0.221792 0.070543
v -0.152819 -0.198495 0.070543
v -0.151417 -0.175197 0.070543
v -0.150014 -0.151900 0.070543
v -0.148612 -0.128602 0.070543
v -0.147209 -0.105305 0.070543
v -0.145806 -0.082007 0.070543
v -0.144404 -0.058710 0.070543
v -0.143001 -0.035412 0.070543
v -0.141599 -0.012115 0.070543
v -0.171275 -0.531898 0.070747
v -0.140164 -0.000496 0.070747
v -0.129130 -0.524659 0.078659
v -0.128289 -0.501362 0.078659
v -0.127237 -0.478065 0.078659
v -0.126185 -0.454767 0.078659
v -0.125133 -0.431470 0.078659
v -0.124081 -0.408172 0.078659
v -0.123029 -0.384875 0.078659
v -0.121978 -0.361577 0.078659
v -0.120926 -0.338280 0.078659
v -0.119874 -0.314982 0.078659
v -0.118822 -0.291685 0.078659
v -0.117770 -0.268387 0.078659
v -0.116718 -0.245090 0.078659
v -0.115666 -0.221792 0.078659
v -0.114614 -0.198495 0.078659
v -0.113562 -0.175197 0.078659
v -0.112511 -0.151900 0.078659
v -0.111459 -0.128602 0.078659
v -0.110407 -0.105305 0.078659
v -0.109355 -0.082007 0.078659
v -0.108303 -0.058710 0.078659
v -0.107251 -0.035412 0.078659
v -0.106199 -0.012115 0.078659
v -0.128119 -0.531898 0.078813
v -0.104847 -0.000496 0.078813
v -0.086087 -0.524659 0.083977
v -0.085526 -0.501362 0.083977
v -0.084825 -0.478065 0.083977
v -0.084123 -0.454767 0.083977
v -0.083422 -0.431470 0.083977
v -0.082721 -0.408172 0.083977
v -0.082020 -0.384875 0.083977
v -0.081318 -0.361577 0.083977
v -0.080617 -0.338280 0.083977
v -0.079916 -0.314982 0.083977
v -0.079215 -0.291685 0.083977
v -0.078513 -0.268387 0.083977
v -0.077812 -0.245090 0.083977
v -0.077111 -0.221792 0.083977
v -0.076410 -0.198495 0.083977
v -0.075708 -0.175197 0.083977
v -0.075007 -0.151900 0.083977
v -0.074306 -0.128602 0.083977
v -0.073605 -0.105305 0.083977
v -0.072903 -0.082007 0.083977
v -0.072202 -0.058710 0.083977
v -0.071501 -0.035412 0.083977
v -0.070799 -0.012115 0.083977
v -0.084963 -0.531898 0.084083
v -0.069530 -0.000496 0.084083
v -0.074174 -0.520219 0.085031
v -0.054846 -0.496861 0.086363
v -0.042412 -0.478065 0.087012
v -0.042062 -0.454767 0.087012
v -0.041711 -0.431470 0.087012
v -0.041360 -0.408172 0.087012
v -0.041010 -0.384875 0.087012
v -0.040659 -0.361577 0.087012
v -0.040309 -0.338280 0.087012
v -0.039958 -0.314982 0.087012
v -0.039607 -0.291685 0.087012
v -0.039257 -0.268387 0.087012
v -0.038906 -0.245090 0.087012
v -0.038555 -0.221792 0.087012
v -0.038205 -0.198495 0.087012
v -0.037854 -0.175197 0.087012
v -0.037503 -0.151900 0.087012
v -0.037153 -0.128602 0.087012
v -0.036802 -0.105305 0.087012
v -0.036452 -0.082007 0.087012
v -0.036101 -0.058710 0.087012
v -0.035750 -0.035412 0.087012
v -0.035400 -0.012115 0.087012
v -0.034213 -0.000496 0.087068
v 0.000000 -0.478065 0.088000
v 0.000000 -0.454767 0.088000
v 0.000000 -0.431470 0.088000
v 0.000000 -0.408172 0.088000
v 0.000000 -0.384875 0.088000
v 0.000000 -0.361577 0.088000
v 0.000000 -0.338280 0.088000
v 0.000000 -0.314982 0.088000
v 0.000000 -0.291685 0.088000
v 0.000000 -0.268387 0.088000
v 0.000000 -0.245090 0.088000
v 0.000000 -0.221792 0.088000
v 0.000000 -0.198495 0.088000
v 0.000000 -0.175197 0.088000
v 0.000000 -0.151900 0.088000
v 0.000000 -0.128602 0.088000
v 0.000000 -0.105305 0.088000
v 0.000000 -0.082007 0.088000
v 0.000000 -0.058710 0.088000
v 0.000000 -0.035412 0.088000
v 0.000000 -0.012115 0.088000
v 0.001336 -0.492481 0.087999
v 0.001104 -0.000496 0.087999
v 0.034213 -0.000496 0.087068
v 0.042412 -0.478065 0.087012
v 0.042062 -0.454767 0.087012
v 0.041711 -0.431470 0.087012
v 0.041360 -0.408172 0.087012
v 0.041010 -0.384875 0.087012
v 0.040659 -0.361577 0.087012
v 0.040309 -0.338280 0.087012
v 0.039958 -0.314982 0.087012
v 0.039607 -0.291685 0.087012
v 0.039257 -0.268387 0.087012
v 0.038906 -0.245090 0.087012
v 0.038555 -0.221792 0.087012
v 0.038205 -0.198495 0.087012
v 0.037854 -0.175197 0.087012
v 0.037504 -0.151900 0.087012
v 0.037153 -0.128602 0.087012
v 0.036802 -0.105305 0.087012
v 0.036452 -0.082007 0.087012
v 0.036101 -0.058710 0.087012
v 0.035750 -0.035412 0.087012
v 0.035400 -0.012115 0.087012
v 0.052171 -0.496861 0.086520
v 0.071477 -0.520219 0.085247
v 0.082266 -0.531898 0.084334
v 0.084963 -0.531898 0.084083
v 0.069530 -0.000496 0.084083
v 0.086087 -0.524659 0.083977
v 0.085526 -0.501362 0.083977
v 0.084825 -0.478065 0.083977
v 0.084123 -0.454767 0.083977
v 0.083422 -0.431470 0.083977
v 0.082721 -0.408172 0.083977
v 0.082020 -0.384875 0.083977
v 0.081318 -0.361577 0.083977
v 0.080617 -0.338280 0.083977
v 0.079916 -0.314982 0.083977
v 0.079215 -0.291685 0.083977
v 0.078513 -0.268387 0.083977
v 0.077812 -0.245090 0.083977
v 0.077111 -0.221792 0.083977
v 0.076410 -0.198495 0.083977
v 0.075708 -0.175197 0.083977
v 0.075007 -0.151900 0.083977
v 0.074306 -0.128602 0.083977
v 0.073604 -0.105305 0.083977
v 0.072903 -0.082007 0.083977
v 0.072202 -0.058710 0.083977
v 0.071501 -0.035412 0.083977
v 0.070799 -0.012115 0.083977
v 0.128119 -0.531898 0.078813
v 0.104847 -0.000496 0.078813
v 0.129130 -0.524659 0.078659
v 0.128289 -0.501362 0.078659
v 0.127237 -0.478065 0.078659
v 0.126185 -0.454767 0.078659
v 0.125133 -0.431470 0.078659
v 0.124081 -0.408172 0.078659
v 0.123029 -0.384875 0.078659
v 0.121978 -0.361577 0.078659
v 0.120926 -0.338280 0.078659
v 0.119874 -0.314982 0.078659
v 0.118822 -0.291685 0.078659
v 0.117770 -0.268387 0.078659
v 0.116718 -0.245090 0.078659
v 0.115666 -0.221792 0.078659
v 0.114614 -0.198495 0.078659
v 0.113562 -0.175197 0.078659
v 0.112511 -0.151900 0.078659
v 0.111459 -0.128602 0.078659
v 0.110407 -0.105305 0.078659
v 0.109355 -0.082007 0.078659
v 0.108303 -0.058710 0.078659
v 0.107251 -0.035412 0.078659
v 0.106199 -0.012115 0.078659
v 0.171275 -0.531898 0.070747
v 0.140164 -0.000496 0.070747
v 0.172174 -0.524659 0.070543
v 0.171052 -0.501362 0.070543
v 0.169649 -0.478065 0.070543
v 0.168247 -0.454767 0.070543
v 0.166844 -0.431470 0.070543
v 0.165442 -0.408172 0.070543
v 0.164039 -0.384875 0.070543
v 0.162637 -0.361577 0.070543
v 0.161234 -0.338280 0.070543
v 0.159832 -0.314982 0.070543
v 0.158429 -0.291685 0.070543
v 0.157027 -0.268387 0.070543
v 0.155624 -0.245090 0.070543
v 0.154222 -0.221792 0.070543
v 0.152819 -0.198495 0.070543
v 0.151417 -0.175197 0.070543
v 0.150014 -0.151900 0.070543
v 0.148612 -0.128602 0.070543
v 0.147209 -0.105305 0.070543
v 0.145806 -0.082007 0.070543
v 0.144404 -0.058710 0.070543
v 0.143001 -0.035412 0.070543
v 0.141599 -0.012115 0.070543
v 0.209036 -0.521679 0.060534
v 0.175481 -0.000496 0.058746
v 0.213815 -0.501362 0.058477
v 0.212062 -0.478065 0.058477
v 0.210309 -0.454767 0.058477
v 0.208555 -0.431470 0.058477
v 0.206802 -0.408172 0.058477
v 0.205049 -0.384875 0.058477
v 0.203296 -0.361577 0.058477
v 0.201543 -0.338280 0.058477
v 0.199790 -0.314982 0.058477
v 0.198036 -0.291685 0.058477
v 0.196283 -0.268387 0.058477
v 0.194530 -0.245090 0.058477
v 0.192777 -0.221792 0.058477
v 0.191024 -0.198495 0.058477
v 0.189271 -0.175197 0.058477
v 0.187518 -0.151900 0.058477
v 0.185764 -0.128602 0.058477
v 0.184011 -0.105305 0.058477
v 0.182258 -0.082007 0.058477
v 0.180505 -0.058710 0.058477
v 0.178752 -0.035412 0.058477
v 0.176999 -0.012115 0.058477
v 0.219040 -0.314374 0.050434
v 0.217113 -0.291015 0.050434
v 0.215185 -0.267657 0.050434
v 0.213378 -0.245759 0.050434
v 0.211451 -0.222400 0.050434
v 0.209523 -0.199042 0.050434
v 0.207595 -0.175684 0.050434
v 0.205668 -0.152325 0.050434
v 0.203740 -0.128967 0.050434
v 0.201813 -0.105609 0.050434
v 0.199885 -0.082250 0.050434
v 0.197958 -0.058892 0.050434
v 0.196030 -0.035534 0.050434
v 0.194103 -0.012176 0.050434
v 0.193139 -0.000496 0.050434
v 0.260731 -0.514507 0.041736
v 0.255977 -0.494831 0.041514
v 0.250069 -0.473290 0.041514
v 0.244160 -0.451748 0.041514
v 0.238252 -0.430207 0.041514
v 0.232344 -0.408665 0.041514
v 0.226436 -0.387123 0.041514
v 0.220732 -0.370123 0.040869
v 0.282975 -0.516922 0.040244
v 0.285214 -0.511368 0.044588
v 0.271324 -0.493484 0.044588
v 0.257433 -0.475601 0.044588
v 0.243542 -0.457717 0.044588
v 0.229652 -0.439834 0.044588
v 0.215761 -0.421951 0.044588
v 0.201870 -0.404067 0.044588
v 0.185251 -0.391097 0.046082
v 0.292296 -0.496504 0.048400
v 0.289804 -0.479023 0.048400
v 0.273700 -0.462187 0.048400
v 0.257596 -0.445351 0.048400
v 0.241493 -0.428515 0.048400
v 0.225389 -0.411680 0.048400
v 0.209285 -0.394844 0.048400
v 0.193181 -0.378008 0.048400
v 0.183288 -0.362387 0.048400
v 0.188183 -0.361745 0.048400
v 0.213237 -0.362023 0.048400
v 0.304486 -0.454541 0.048400
v 0.296652 -0.440233 0.048400
v 0.280548 -0.423397 0.048400
v 0.264445 -0.406561 0.048400
v 0.248341 -0.389725 0.048400
v 0.232237 -0.372890 0.048400
v 0.226483 -0.361475 0.048400
v 0.251536 -0.361753 0.048400
v 0.314379 -0.418815 0.048400
v 0.303500 -0.401443 0.048400
v 0.287397 -0.384607 0.048400
v 0.271293 -0.367771 0.048400
v 0.267229 -0.360884 0.048400
v 0.286379 -0.360749 0.048400
v 0.305529 -0.360613 0.048400
v 0.325131 -0.378227 0.048400
v 0.310349 -0.362653 0.048400
v 0.324678 -0.360478 0.048400
vt 0.018277 0.731071
vt 0.023499 0.723238
vt 0.036554 0.746736
vt 0.041667 0.750000
vt 0.041667 0.708333
vt 0.060052 0.676240
vt 0.062663 0.767624
vt 0.083333 0.750000
vt 0.083333 0.708333
vt 0.083333 0.666667
vt 0.088773 0.788512
vt 0.093995 0.634465
vt 0.101828 0.798956
vt 0.125000 0.791667
vt 0.125000 0.750000
vt 0.125000 0.708333
vt 0.125000 0.666667
vt 0.125000 0.625000
vt 0.130548 0.587467
vt 0.135770 0.825065
vt 0.154047 0.840731
vt 0.159269 0.550914
vt 0.166667 0.833333
vt 0.166667 0.791667
vt 0.166667 0.750000
vt 0.166667 0.708333
vt 0.166667 0.666667
vt 0.166667 0.625000
vt 0.166667 0.583333
vt 0.180157 0.861619
vt 0.180157 0.569191
vt 0.193211 0.872063
vt 0.201044 0.587467
vt 0.208333 0.875000
vt 0.208333 0.833333
vt 0.208333 0.791667
vt 0.208333 0.750000
vt 0.208333 0.708333
vt 0.208333 0.666667
vt 0.208333 0.625000
vt 0.219321 0.892950
vt 0.245431 0.913838
vt 0.245431 0.629243
vt 0.250000 0.916667
vt 0.250000 0.875000
vt 0.250000 0.833333
vt 0.250000 0.791667
vt 0.250000 0.750000
vt 0.250000 0.708333
vt 0.250000 0.666667
vt 0.268930 0.582245
vt 0.268930 0.540470
vt 0.268930 0.498695
vt 0.268930 0.459530
vt 0.268930 0.417755
vt 0.268930 0.375979
vt 0.268930 0.334204
vt 0.268930 0.292428
vt 0.268930 0.250653
vt 0.268930 0.208877
vt 0.268930 0.167102
vt 0.268930 0.125326
vt 0.268930 0.083551
vt 0.268930 0.041775
vt 0.271540 0.934726
vt 0.291667 0.916667
vt 0.291667 0.875000
vt 0.291667 0.833333
vt 0.291667 0.791667
vt 0.291667 0.750000
vt 0.291667 0.708333
vt 0.291667 0.666667
vt 0.291667 0.625000
vt 0.291667 0.583333
vt 0.291667 0.541667
vt 0.291667 0.500000
vt 0.291667 0.458333
vt 0.291667 0.416667
vt 0.291667 0.375000
vt 0.291667 0.333333
vt 0.291667 0.291667
vt 0.291667 0.250000
vt 0.291667 0.208333
vt 0.291667 0.166667
vt 0.291667 0.125000
vt 0.291667 0.083333
vt 0.291667 0.041667
vt 0.292428 0.020888
vt 0.297650 0.955614
vt 0.310705 0.966057
vt 0.333333 0.958333
vt 0.333333 0.916667
vt 0.333333 0.875000
vt 0.333333 0.833333
vt 0.333333 0.791667
vt 0.333333 0.750000
vt 0.333333 0.708333
vt 0.333333 0.666667
vt 0.333333 0.625000
vt 0.333333 0.583333
vt 0.333333 0.541667
vt 0.333333 0.500000
vt 0.333333 0.458333
vt 0.333333 0.416667
vt 0.333333 0.375000
vt 0.333333 0.333333
vt 0.333333 0.291667
vt 0.333333 0.250000
vt 0.333333 0.208333
vt 0.333333 0.166667
vt 0.333333 0.125000
vt 0.333333 0.083333
vt 0.333333 0.041667
vt 0.334204 0.971279
vt 0.334204 0.020888
vt 0.375000 0.958333
vt 0.375000 0.916667
vt 0.375000 0.875000
vt 0.375000 0.833333
vt 0.375000 0.791667
vt 0.375000 0.750000
vt 0.375000 0.708333
vt 0.375000 0.666667
vt 0.375000 0.625000
vt 0.375000 0.583333
vt 0.375000 0.541667
vt 0.375000 0.500000
vt 0.375000 0.458333
vt 0.375000 0.416667
vt 0.375000 0.375000
vt 0.375000 0.333333
vt 0.375000 0.291667
vt 0.375000 0.250000
vt 0.375000 0.208333
vt 0.375000 0.166667
vt 0.375000 0.125000
vt 0.375000 0.083333
vt 0.375000 0.041667
vt 0.375979 0.971279
vt 0.375979 0.020888
vt 0.416667 0.958333
vt 0.416667 0.916667
vt 0.416667 0.875000
vt 0.416667 0.833333
vt 0.416667 0.791667
vt 0.416667 0.750000
vt 0.416667 0.708333
vt 0.416667 0.666667
vt 0.416667 0.625000
vt 0.416667 0.583333
vt 0.416667 0.541667
vt 0.416667 0.500000
vt 0.416667 0.458333
vt 0.416667 0.416667
vt 0.416667 0.375000
vt 0.416667 0.333333
vt 0.416667 0.291667
vt 0.416667 0.250000
vt 0.416667 0.208333
vt 0.416667 0.166667
vt 0.416667 0.125000
vt 0.416667 0.083333
vt 0.416667 0.041667
vt 0.417755 0.971279
vt 0.417755 0.020888
vt 0.428198 0.950392
vt 0.446475 0.908616
vt 0.458333 0.875000
vt 0.458333 0.833333
vt 0.458333 0.791667
vt 0.458333 0.750000
vt 0.458333 0.708333
vt 0.458333 0.666667
vt 0.458333 0.625000
vt 0.458333 0.583333
vt 0.458333 0.541667
vt 0.458333 0.500000
vt 0.458333 0.458333
vt 0.458333 0.416667
vt 0.458333 0.375000
vt 0.458333 0.333333
vt 0.458333 0.291667
vt 0.458333 0.250000
vt 0.458333 0.208333
vt 0.458333 0.166667
vt 0.458333 0.125000
vt 0.458333 0.083333
vt 0.458333 0.041667
vt 0.459530 0.020888
vt 0.500000 0.875000
vt 0.500000 0.833333
vt 0.500000 0.791667
vt 0.500000 0.750000
vt 0.500000 0.708333
vt 0.500000 0.666667
vt 0.500000 0.625000
vt 0.500000 0.583333
vt 0.500000 0.541667
vt 0.500000 0.500000
vt 0.500000 0.458333
vt 0.500000 0.416667
vt 0.500000 0.375000
vt 0.500000 0.333333
vt 0.500000 0.291667
vt 0.500000 0.250000
vt 0.500000 0.208333
vt 0.500000 0.166667
vt 0.500000 0.125000
vt 0.500000 0.083333
vt 0.500000 0.041667
vt 0.501305 0.900783
vt 0.501305 0.020888
vt 0.540470 0.020888
vt 0.541667 0.875000
vt 0.541667 0.833333
vt 0.541667 0.791667
vt 0.541667 0.750000
vt 0.541667 0.708333
vt 0.541667 0.666667
vt 0.541667 0.625000
vt 0.541667 0.583333
vt 0.541667 0.541667
vt 0.541667 0.500000
vt 0.541667 0.458333
vt 0.541667 0.416667
vt 0.541667 0.375000
vt 0.541667 0.333333
vt 0.541667 0.291667
vt 0.541667 0.250000
vt 0.541667 0.208333
vt 0.541667 0.166667
vt 0.541667 0.125000
vt 0.541667 0.083333
vt 0.541667 0.041667
vt 0.550914 0.908616
vt 0.569191 0.950392
vt 0.579634 0.971279
vt 0.582245 0.971279
vt 0.582245 0.020888
vt 0.583333 0.958333
vt 0.583333 0.916667
vt 0.583333 0.875000
vt 0.583333 0.833333
vt 0.583333 0.791667
vt 0.583333 0.750000
vt 0.583333 0.708333
vt 0.583333 0.666667
vt 0.583333 0.625000
vt 0.583333 0.583333
vt 0.583333 0.541667
vt 0.583333 0.500000
vt 0.583333 0.458333
vt 0.583333 0.416667
vt 0.583333 0.375000
vt 0.583333 0.333333
vt 0.583333 0.291667
vt 0.583333 0.250000
vt 0.583333 0.208333
vt 0.583333 0.166667
vt 0.583333 0.125000
vt 0.583333 0.083333
vt 0.583333 0.041667
vt 0.624021 0.971279
vt 0.624021 0.020888
vt 0.625000 0.958333
vt 0.625000 0.916667
vt 0.625000 0.875000
vt 0.625000 0.833333
vt 0.625000 0.791667
vt 0.625000 0.750000
vt 0.625000 0.708333
vt 0.625000 0.666667
vt 0.625000 0.625000
vt 0.625000 0.583333
vt 0.625000 0.541667
vt 0.625000 0.500000
vt 0.625000 0.458333
vt 0.625000 0.416667
vt 0.625000 0.375000
vt 0.625000 0.333333
vt 0.625000 0.291667
vt 0.625000 0.250000
vt 0.625000 0.208333
vt 0.625000 0.166667
vt 0.625000 0.125000
vt 0.625000 0.083333
vt 0.625000 0.041667
vt 0.665796 0.971279
vt 0.665796 0.020888
vt 0.666667 0.958333
vt 0.666667 0.916667
vt 0.666667 0.875000
vt 0.666667 0.833333
vt 0.666667 0.791667
vt 0.666667 0.750000
vt 0.666667 0.708333
vt 0.666667 0.666667
vt 0.666667 0.625000
vt 0.666667 0.583333
vt 0.666667 0.541667
vt 0.666667 0.500000
vt 0.666667 0.458333
vt 0.666667 0.416667
vt 0.666667 0.375000
vt 0.666667 0.333333
vt 0.666667 0.291667
vt 0.666667 0.250000
vt 0.666667 0.208333
vt 0.666667 0.166667
vt 0.666667 0.125000
vt 0.666667 0.083333
vt 0.666667 0.041667
vt 0.702350 0.953003
vt 0.707572 0.020888
vt 0.708333 0.916667
vt 0.708333 0.875000
vt 0.708333 0.833333
vt 0.708333 0.791667
vt 0.708333 0.750000
vt 0.708333 0.708333
vt 0.708333 0.666667
vt 0.708333 0.625000
vt 0.708333 0.583333
vt 0.708333 0.541667
vt 0.708333 0.500000
vt 0.708333 0.458333
vt 0.708333 0.416667
vt 0.708333 0.375000
vt 0.708333 0.333333
vt 0.708333 0.291667
vt 0.708333 0.250000
vt 0.708333 0.208333
vt 0.708333 0.166667
vt 0.708333 0.125000
vt 0.708333 0.083333
vt 0.708333 0.041667
vt 0.728460 0.582245
vt 0.728460 0.540470
vt 0.728460 0.498695
vt 0.728460 0.459530
vt 0.728460 0.417755
vt 0.728460 0.375979
vt 0.728460 0.334204
vt 0.728460 0.292428
vt 0.728460 0.250653
vt 0.728460 0.208877
vt 0.728460 0.167102
vt 0.728460 0.125326
vt 0.728460 0.083551
vt 0.728460 0.041775
vt 0.728460 0.020888
vt 0.749347 0.913838
vt 0.750000 0.875000
vt 0.750000 0.833333
vt 0.750000 0.791667
vt 0.750000 0.750000
vt 0.750000 0.708333
vt 0.750000 0.666667
vt 0.751958 0.629243
vt 0.778068 0.892950
vt 0.791667 0.875000
vt 0.791667 0.833333
vt 0.791667 0.791667
vt 0.791667 0.750000
vt 0.791667 0.708333
vt 0.791667 0.666667
vt 0.791667 0.625000
vt 0.796345 0.587467
vt 0.819843 0.859008
vt 0.833333 0.833333
vt 0.833333 0.791667
vt 0.833333 0.750000
vt 0.833333 0.708333
vt 0.833333 0.666667
vt 0.833333 0.625000
vt 0.833333 0.583333
vt 0.838120 0.550914
vt 0.843342 0.556136
vt 0.866841 0.587467
vt 0.869452 0.819843
vt 0.875000 0.791667
vt 0.875000 0.750000
vt 0.875000 0.708333
vt 0.875000 0.666667
vt 0.875000 0.625000
vt 0.879896 0.603133
vt 0.903394 0.634465
vt 0.911227 0.785901
vt 0.916667 0.750000
vt 0.916667 0.708333
vt 0.916667 0.666667
vt 0.919060 0.652742
vt 0.937337 0.676240
vt 0.955614 0.699739
vt 0.958225 0.746736
vt 0.958333 0.708333
vt 0.973890 0.723238
vt 0.018277 0.731071
vt 0.023499 0.723238
vt 0.036554 0.746736
vt 0.041667 0.750000
vt 0.041667 0.708333
vt 0.060052 0.676240
vt 0.062663 0.767624
vt 0.083333 0.750000
vt 0.083333 0.708333
vt 0.083333 0.666667
vt 0.088773 0.788512
vt 0.093995 0.634465
vt 0.101828 0.798956
vt 0.125000 0.791667
vt 0.125000 0.750000
vt 0.125000 0.708333
vt 0.125000 0.666667
vt 0.125000 0.625000
vt 0.130548 0.587467
vt 0.135770 0.825065
vt 0.154047 0.840731
vt 0.159269 0.550914
vt 0.166667 0.833333
vt 0.166667 0.791667
vt 0.166667 0.750000
vt 0.166667 0.708333
vt 0.166667 0.666667
vt 0.166667 0.625000
vt 0.166667 0.583333
vt 0.180157 0.861619
vt 0.180157 0.569191
vt 0.193211 0.872063
vt 0.201044 0.587467
vt 0.208333 0.875000
vt 0.208333 0.833333
vt 0.208333 0.791667
vt 0.208333 0.750000
vt 0.208333 0.708333
vt 0.208333 0.666667
vt 0.208333 0.625000
vt 0.219321 0.892950
vt 0.245431 0.913838
vt 0.245431 0.629243
vt 0.250000 0.916667
vt 0.250000 0.875000
vt 0.250000 0.833333
vt 0.250000 0.791667
vt 0.250000 0.750000
vt 0.250000 0.708333
vt 0.250000 0.666667
vt 0.268930 0.582245
vt 0.268930 0.540470
vt 0.268930 0.498695
vt 0.268930 0.459530
vt 0.268930 0.417755
vt 0.268930 0.375979
vt 0.268930 0.334204
vt 0.268930 0.292428
vt 0.268930 0.250653
vt 0.268930 0.208877
vt 0.268930 0.167102
vt 0.268930 0.125326
vt 0.268930 0.083551
vt 0.268930 0.041775
vt 0.271540 0.934726
vt 0.291667 0.916667
vt 0.291667 0.875000
vt 0.291667 0.833333
vt 0.291667 0.791667
vt 0.291667 0.750000
vt 0.291667 0.708333
vt 0.291667 0.666667
vt 0.291667 0.625000
vt 0.291667 0.583333
vt 0.291667 0.541667
vt 0.291667 0.500000
vt 0.291667 0.458333
vt 0.291667 0.416667
vt 0.291667 0.375000
vt 0.291667 0.333333
vt 0.291667 0.291667
vt 0.291667 0.250000
vt 0.291667 0.208333
vt 0.291667 0.166667
vt 0.291667 0.125000
vt 0.291667 0.083333
vt 0.291667 0.041667
vt 0.292428 0.020888
vt 0.297650 0.955614
vt 0.310705 0.966057
vt 0.333333 0.958333
vt 0.333333 0.916667
vt 0.333333 0.875000
vt 0.333333 0.833333
vt 0.333333 0.791667
vt 0.333333 0.750000
vt 0.333333 0.708333
vt 0.333333 0.666667
vt 0.333333 0.625000
vt 0.333333 0.583333
vt 0.333333 0.541667
vt 0.333333 0.500000
vt 0.333333 0.458333
vt 0.333333 0.416667
vt 0.333333 0.375000
vt 0.333333 0.333333
vt 0.333333 0.291667
vt 0.333333 0.250000
vt 0.333333 0.208333
vt 0.333333 0.166667
vt 0.333333 0.125000
vt 0.333333 0.083333
vt 0.333333 0.041667
vt 0.334204 0.971279
vt 0.334204 0.020888
vt 0.375000 0.958333
vt 0.375000 0.916667
vt 0.375000 0.875000
vt 0.375000 0.833333
vt 0.375000 0.791667
vt 0.375000 0.750000
vt 0.375000 0.708333
vt 0.375000 0.666667
vt 0.375000 0.625000
vt 0.375000 0.583333
vt 0.375000 0.541667
vt 0.375000 0.500000
vt 0.375000 0.458333
vt 0.375000 0.416667
vt 0.375000 0.375000
vt 0.375000 0.333333
vt 0.375000 0.291667
vt 0.375000 0.250000
vt 0.375000 0.208333
vt 0.375000 0.166667
vt 0.375000 0.125000
vt 0.375000 0.083333
vt 0.375000 0.041667
vt 0.375979 0.971279
vt 0.375979 0.020888
vt 0.416667 0.958333
vt 0.416667 0.916667
vt 0.416667 0.875000
vt 0.416667 0.833333
vt 0.416667 0.791667
vt 0.416667 0.750000
vt 0.416667 0.708333
vt 0.416667 0.666667
vt 0.416667 0.625000
vt 0.416667 0.583333
vt 0.416667 0.541667
vt 0.416667 0.500000
vt 0.416667 0.458333
vt 0.416667 0.416667
vt 0.416667 0.375000
vt 0.416667 0.333333
vt 0.416667 0.291667
vt 0.416667 0.250000
vt 0.416667 0.208333
vt 0.416667 0.166667
vt 0.416667 0.125000
vt 0.416667 0.083333
vt 0.416667 0.041667
vt 0.417755 0.971279
vt 0.417755 0.020888
vt 0.428198 0.950392
vt 0.446475 0.908616
vt 0.458333 0.875000
vt 0.458333 0.833333
vt 0.458333 0.791667
vt 0.458333 0.750000
vt 0.458333 0.708333
vt 0.458333 0.666667
vt 0.458333 0.625000
vt 0.458333 0.583333
vt 0.458333 0.541667
vt 0.458333 0.500000
vt 0.458333 0.458333
vt 0.458333 0.416667
vt 0.458333 0.375000
vt 0.458333 0.333333
vt 0.458333 0.291667
vt 0.458333 0.250000
vt 0.458333 0.208333
vt 0.458333 0.166667
vt 0.458333 0.125000
vt 0.458333 0.083333
vt 0.458333 0.041667
vt 0.459530 0.020888
vt 0.500000 0.875000
vt 0.500000 0.833333
vt 0.500000 0.791667
vt 0.500000 0.750000
vt 0.500000 0.708333
vt 0.500000 0.666667
vt 0.500000 0.625000
vt 0.500000 0.583333
vt 0.500000 0.541667
vt 0.500000 0.500000
vt 0.500000 0.458333
vt 0.500000 0.416667
vt 0.500000 0.375000
vt 0.500000 0.333333
vt 0.500000 0.291667
vt 0.500000 0.250000
vt 0.500000 0.208333
vt 0.500000 0.166667
vt 0.500000 0.125000
vt 0.500000 0.083333
vt 0.500000 0.041667
vt 0.501305 0.900783
vt 0.501305 0.020888
vt 0.540470 0.020888
vt 0.541667 0.875000
vt 0.541667 0.833333
vt 0.541667 0.791667
vt 0.541667 0.750000
vt 0.541667 0.708333
vt 0.541667 0.666667
vt 0.541667 0.625000
vt 0.541667 0.583333
vt 0.541667 0.541667
vt 0.541667 0.500000
vt 0.541667 0.458333
vt 0.541667 0.416667
vt 0.541667 0.375000
vt 0.541667 0.333333
vt 0.541667 0.291667
vt 0.541667 0.250000
vt 0.541667 0.208333
vt 0.541667 0.166667
vt 0.541667 0.125000
vt 0.541667 0.083333
vt 0.541667 0.041667
vt 0.550914 0.908616
vt 0.569191 0.950392
vt 0.579634 0.971279
vt 0.582245 0.971279
vt 0.582245 0.020888
vt 0.583333 0.958333
vt 0.583333 0.916667
vt 0.583333 0.875000
vt 0.583333 0.833333
vt 0.583333 0.791667
vt 0.583333 0.750000
vt 0.583333 0.708333
vt 0.583333 0.666667
vt 0.583333 0.625000
vt 0.583333 0.583333
vt 0.583333 0.541667
vt 0.583333 0.500000
vt 0.583333 0.458333
vt 0.583333 0.416667
vt 0.583333 0.375000
vt 0.583333 0.333333
vt 0.583333 0.291667
vt 0.583333 0.250000
vt 0.583333 0.208333
vt 0.583333 0.166667
vt 0.583333 0.125000
vt 0.583333 0.083333
vt 0.583333 0.041667
vt 0.624021 0.971279
vt 0.624021 0.020888
vt 0.625000 0.958333
vt 0.625000 0.916667
vt 0.625000 0.875000
vt 0.625000 0.833333
vt 0.625000 0.791667
vt 0.625000 0.750000
vt 0.625000 0.708333
vt 0.625000 0.666667
vt 0.625000 0.625000
vt 0.625000 0.583333
vt 0.625000 0.541667
vt 0.625000 0.500000
vt 0.625000 0.458333
vt 0.625000 0.416667
vt 0.625000 0.375000
vt 0.625000 0.333333
vt 0.625000 0.291667
vt 0.625000 0.250000
vt 0.625000 0.208333
vt 0.625000 0.166667
vt 0.625000 0.125000
vt 0.625000 0.083333
vt 0.625000 0.041667
vt 0.665796 0.971279
vt 0.665796 0.020888
vt 0.666667 0.958333
vt 0.666667 0.916667
vt 0.666667 0.875000
vt 0.666667 0.833333
vt 0.666667 0.791667
vt 0.666667 0.750000
vt 0.666667 0.708333
vt 0.666667 0.666667
vt 0.666667 0.625000
vt 0.666667 0.583333
vt 0.666667 0.541667
vt 0.666667 0.500000
vt 0.666667 0.458333
vt 0.666667 0.416667
vt 0.666667 0.375000
vt 0.666667 0.333333
vt 0.666667 0.291667
vt 0.666667 0.250000
vt 0.666667 0.208333
vt 0.666667 0.166667
vt 0.666667 0.125000
vt 0.666667 0.083333
vt 0.666667 0.041667
vt 0.702350 0.953003
vt 0.707572 0.020888
vt 0.708333 0.916667
vt 0.708333 0.875000
vt 0.708333 0.833333
vt 0.708333 0.791667
vt 0.708333 0.750000
vt 0.708333 0.708333
vt 0.708333 0.666667
vt 0.708333 0.625000
vt 0.708333 0.583333
vt 0.708333 0.541667
vt 0.708333 0.500000
vt 0.708333 0.458333
vt 0.708333 0.416667
vt 0.708333 0.375000
vt 0.708333 0.333333
vt 0.708333 0.291667
vt 0.708333 0.250000
vt 0.708333 0.208333
vt 0.708333 0.166667
vt 0.708333 0.125000
vt 0.708333 0.083333
vt 0.708333 0.041667
vt 0.728460 0.582245
vt 0.728460 0.540470
vt 0.728460 0.498695
vt 0.728460 0.459530
vt 0.728460 0.417755
vt 0.728460 0.375979
vt 0.728460 0.334204
vt 0.728460 0.292428
vt 0.728460 0.250653
vt 0.728460 0.208877
vt 0.728460 0.167102
vt 0.728460 0.125326
vt 0.728460 0.083551
vt 0.728460 0.041775
vt 0.728460 0.020888
vt 0.749347 0.913838
vt 0.750000 0.875000
vt 0.750000 0.833333
vt 0.750000 0.791667
vt 0.750000 0.750000
vt 0.750000 0.708333
vt 0.750000 0.666667
vt 0.751958 0.629243
vt 0.778068 0.892950
vt 0.791667 0.875000
vt 0.791667 0.833333
vt 0.791667 0.791667
vt 0.791667 0.750000
vt 0.791667 0.708333
vt 0.791667 0.666667
vt 0.791667 0.625000
vt 0.796345 0.587467
vt 0.819843 0.859008
vt 0.833333 0.833333
vt 0.833333 0.791667
vt 0.833333 0.750000
vt 0.833333 0.708333
vt 0.833333 0.666667
vt 0.833333 0.625000
vt 0.833333 0.583333
vt 0.838120 0.550914
vt 0.843342 0.556136
vt 0.866841 0.587467
vt 0.869452 0.819843
vt 0.875000 0.791667
vt 0.875000 0.750000
vt 0.875000 0.708333
vt 0.875000 0.666667
vt 0.875000 0.625000
vt 0.879896 0.603133
vt 0.903394 0.634465
vt 0.911227 0.785901
vt 0.916667 0.750000
vt 0.916667 0.708333
vt 0.916667 0.666667
vt 0.919060 0.652742
vt 0.937337 0.676240
vt 0.955614 0.699739
vt 0.958225 0.746736
vt 0.958333 0.708333
vt 0.973890 0.723238
f 90/90 114/114 91/91
f 90/90 91/91 89/89
f 114/114 139/139 116/116
f 114/114 116/116 91/91
f 139/139 164/164 141/141
f 139/139 141/141 116/116
f 164/164 166/166 141/141
f 237/237 238/238 240/240
f 237/237 240/240 236/236
f 238/238 263/263 265/265
f 238/238 265/265 240/240
f 263/263 288/288 290/290
f 263/263 290/290 265/265
f 288/288 313/313 290/290
f 42/42 65/65 44/44
f 42/42 44/44 41/41
f 65/65 89/89 66/66
f 65/65 66/66 44/44
f 89/89 91/91 92/92
f 89/89 92/92 66/66
f 91/91 116/116 117/117
f 91/91 117/117 92/92
f 116/116 141/141 142/142
f 116/116 142/142 117/117
f 141/141 166/166 167/167
f 141/141 167/167 142/142
f 236/236 240/240 241/241
f 236/236 241/241 235/235
f 240/240 265/265 266/266
f 240/240 266/266 241/241
f 265/265 290/290 291/291
f 265/265 291/291 266/266
f 290/290 313/313 315/315
f 290/290 315/315 291/291
f 313/313 352/352 315/315
f 32/32 41/41 34/34
f 32/32 34/34 30/30
f 41/41 44/44 45/45
f 41/41 45/45 34/34
f 44/44 66/66 67/67
f 44/44 67/67 45/45
f 66/66 92/92 93/93
f 66/66 93/93 67/67
f 92/92 117/117 118/118
f 92/92 118/118 93/93
f 117/117 142/142 143/143
f 117/117 143/143 118/118
f 142/142 167/167 168/168
f 142/142 168/168 143/143
f 167/167 211/211 190/190
f 167/167 190/190 168/168
f 211/211 235/235 214/214
f 211/211 214/214 190/190
f 235/235 241/241 242/242
f 235/235 242/242 214/214
f 241/241 266/266 267/267
f 241/241 267/267 242/242
f 266/266 291/291 292/292
f 266/266 292/292 267/267
f 291/291 315/315 316/316
f 291/291 316/316 292/292
f 315/315 352/352 353/353
f 315/315 353/353 316/316
f 352/352 360/360 361/361
f 352/352 361/361 353/353
f 360/360 369/369 361/361
f 21/21 30/30 23/23
f 21/21 23/23 20/20
f 30/30 34/34 35/35
f 30/30 35/35 23/23
f 34/34 45/45 46/46
f 34/34 46/46 35/35
f 45/45 67/67 68/68
f 45/45 68/68 46/46
f 67/67 93/93 94/94
f 67/67 94/94 68/68
f 93/93 118/118 119/119
f 93/93 119/119 94/94
f 118/118 143/143 144/144
f 118/118 144/144 119/119
f 143/143 168/168 169/169
f 143/143 169/169 144/144
f 168/168 190/190 191/191
f 168/168 191/191 169/169
f 190/190 214/214 215/215
f 190/190 215/215 191/191
f 214/214 242/242 243/243
f 214/214 243/243 215/215
f 242/242 267/267 268/268
f 242/242 268/268 243/243
f 267/267 292/292 293/293
f 267/267 293/293 268/268
f 292/292 316/316 317/317
f 292/292 317/317 293/293
f 316/316 353/353 354/354
f 316/316 354/354 317/317
f 353/353 361/361 362/362
f 353/353 362/362 354/354
f 361/361 369/369 370/370
f 361/361 370/370 362/362
f 369/369 380/380 370/370
f 13/13 20/20 14/14
f 13/13 14/14 11/11
f 20/20 23/23 24/24
f 20/20 24/24 14/14
f 23/23 35/35 36/36
f 23/23 36/36 24/24
f 35/35 46/46 47/47
f 35/35 47/47 36/36
f 46/46 68/68 69/69
f 46/46 69/69 47/47
f 68/68 94/94 95/95
f 68/68 95/95 69/69
f 94/94 119/119 120/120
f 94/94 120/120 95/95
f 119/119 144/144 145/145
f 119/119 145/145 120/120
f 144/144 169/169 170/170
f 144/144 170/170 145/145
f 169/169 191/191 192/192
f 169/169 192/192 170/170
f 191/191 215/215 216/216
f 191/191 216/216 192/192
f 215/215 243/243 244/244
f 215/215 244/244 216/216
f 243/243 268/268 269/269
f 243/243 269/269 244/244
f 268/268 293/293 294/294
f 268/268 294/294 269/269
f 293/293 317/317 318/318
f 293/293 318/318 294/294
f 317/317 354/354 355/355
f 317/317 355/355 318/318
f 354/354 362/362 363/363
f 354/354 363/363 355/355
f 362/362 370/370 371/371
f 362/362 371/371 363/363
f 370/370 380/380 381/381
f 370/370 381/381 371/371
f 380/380 388/388 381/381
f 3/3 7/7 4/4
f 3/3 4/4 1/1
f 7/7 11/11 8/8
f 7/7 8/8 4/4
f 11/11 14/14 15/15
f 11/11 15/15 8/8
f 14/14 24/24 25/25
f 14/14 25/25 15/15
f 24/24 36/36 37/37
f 24/24 37/37 25/25
f 36/36 47/47 48/48
f 36/36 48/48 37/37
f 47/47 69/69 70/70
f 47/47 70/70 48/48
f 69/69 95/95 96/96
f 69/69 96/96 70/70
f 95/95 120/120 121/121
f 95/95 121/121 96/96
f 120/120 145/145 146/146
f 120/120 146/146 121/121
f 145/145 170/170 171/171
f 145/145 171/171 146/146
f 170/170 192/192 193/193
f 170/170 193/193 171/171
f 192/192 216/216 217/217
f 192/192 217/217 193/193
f 216/216 244/244 245/245
f 216/216 245/245 217/217
f 244/244 269/269 270/270
f 244/244 270/270 245/245
f 269/269 294/294 295/295
f 269/269 295/295 270/270
f 294/294 318/318 319/319
f 294/294 319/319 295/295
f 318/318 355/355 356/356
f 318/318 356/356 319/319
f 355/355 363/363 364/364
f 355/355 364/364 356/356
f 363/363 371/371 372/372
f 363/363 372/372 364/364
f 371/371 381/381 382/382
f 371/371 382/382 372/372
f 381/381 388/388 389/389
f 381/381 389/389 382/382
f 388/388 395/395 389/389
f 1/1 4/4 5/5
f 1/1 5/5 2/2
f 4/4 8/8 9/9
f 4/4 9/9 5/5
f 8/8 15/15 16/16
f 8/8 16/16 9/9
f 15/15 25/25 26/26
f 15/15 26/26 16/16
f 25/25 37/37 38/38
f 25/25 38/38 26/26
f 37/37 48/48 49/49
f 37/37 49/49 38/38
f 48/48 70/70 71/71
f 48/48 71/71 49/49
f 70/70 96/96 97/97
f 70/70 97/97 71/71
f 96/96 121/121 122/122
f 96/96 122/122 97/97
f 121/121 146/146 147/147
f 121/121 147/147 122/122
f 146/146 171/171 172/172
f 146/146 172/172 147/147
f 171/171 193/193 194/194
f 171/171 194/194 172/172
f 193/193 217/217 218/218
f 193/193 218/218 194/194
f 217/217 245/245 246/246
f 217/217 246/246 218/218
f 245/245 270/270 271/271
f 245/245 271/271 246/246
f 270/270 295/295 296/296
f 270/270 296/296 271/271
f 295/295 319/319 320/320
f 295/295 320/320 296/296
f 319/319 356/356 357/357
f 319/319 357/357 320/320
f 356/356 364/364 365/365
f 356/356 365/365 357/357
f 364/364 372/372 373/373
f 364/364 373/373 365/365
f 372/372 382/382 383/383
f 372/372 383/383 373/373
f 382/382 389/389 390/390
f 382/382 390/390 383/383
f 389/389 395/395 396/396
f 389/389 396/396 390/390
f 395/395 397/397 396/396
f 2/2 5/5 6/6
f 5/5 9/9 10/10
f 5/5 10/10 6/6
f 9/9 16/16 17/17
f 9/9 17/17 10/10
f 16/16 26/26 27/27
f 16/16 27/27 17/17
f 26/26 38/38 39/39
f 26/26 39/39 27/27
f 38/38 49/49 50/50
f 38/38 50/50 39/39
f 49/49 71/71 72/72
f 49/49 72/72 50/50
f 71/71 97/97 98/98
f 71/71 98/98 72/72
f 97/97 122/122 123/123
f 97/97 123/123 98/98
f 122/122 147/147 148/148
f 122/122 148/148 123/123
f 147/147 172/172 173/173
f 147/147 173/173 148/148
f 172/172 194/194 195/195
f 172/172 195/195 173/173
f 194/194 218/218 219/219
f 194/194 219/219 195/195
f 218/218 246/246 247/247
f 218/218 247/247 219/219
f 246/246 271/271 272/272
f 246/246 272/272 247/247
f 271/271 296/296 297/297
f 271/271 297/297 272/272
f 296/296 320/320 321/321
f 296/296 321/321 297/297
f 320/320 357/357 358/358
f 320/320 358/358 321/321
f 357/357 365/365 366/366
f 357/357 366/366 358/358
f 365/365 373/373 374/374
f 365/365 374/374 366/366
f 373/373 383/383 384/384
f 373/373 384/384 374/374
f 383/383 390/390 391/391
f 383/383 391/391 384/384
f 390/390 396/396 393/393
f 390/390 393/393 391/391
f 396/396 397/397 394/394
f 396/396 394/394 393/393
f 6/6 10/10 12/12
f 10/10 17/17 18/18
f 10/10 18/18 12/12
f 17/17 27/27 28/28
f 17/17 28/28 18/18
f 27/27 39/39 40/40
f 27/27 40/40 28/28
f 39/39 50/50 43/43
f 39/39 43/43 40/40
f 50/50 72/72 73/73
f 50/50 73/73 43/43
f 72/72 98/98 99/99
f 72/72 99/99 73/73
f 98/98 123/123 124/124
f 98/98 124/124 99/99
f 123/123 148/148 149/149
f 123/123 149/149 124/124
f 148/148 173/173 174/174
f 148/148 174/174 149/149
f 173/173 195/195 196/196
f 173/173 196/196 174/174
f 195/195 219/219 220/220
f 195/195 220/220 196/196
f 219/219 247/247 248/248
f 219/219 248/248 220/220
f 247/247 272/272 273/273
f 247/247 273/273 248/248
f 272/272 297/297 298/298
f 272/272 298/298 273/273
f 297/297 321/321 322/322
f 297/297 322/322 298/298
f 321/321 358/358 359/359
f 321/321 359/359 322/322
f 358/358 366/366 367/367
f 358/358 367/367 359/359
f 366/366 374/374 375/375
f 366/366 375/375 367/367
f 374/374 384/384 385/385
f 374/374 385/385 375/375
f 384/384 391/391 387/387
f 384/384 387/387 385/385
f 391/391 393/393 392/392
f 391/391 392/392 387/387
f 12/12 18/18 19/19
f 18/18 28/28 29/29
f 18/18 29/29 19/19
f 28/28 40/40 33/33
f 28/28 33/33 29/29
f 40/40 43/43 51/51
f 40/40 51/51 33/33
f 43/43 73/73 74/74
f 43/43 74/74 51/51
f 73/73 99/99 100/100
f 73/73 100/100 74/74
f 99/99 124/124 125/125
f 99/99 125/125 100/100
f 124/124 149/149 150/150
f 124/124 150/150 125/125
f 149/149 174/174 175/175
f 149/149 175/175 150/150
f 174/174 196/196 197/197
f 174/174 197/197 175/175
f 196/196 220/220 221/221
f 196/196 221/221 197/197
f 220/220 248/248 249/249
f 220/220 249/249 221/221
f 248/248 273/273 274/274
f 248/248 274/274 249/249
f 273/273 298/298 299/299
f 273/273 299/299 274/274
f 298/298 322/322 323/323
f 298/298 323/323 299/299
f 322/322 359/359 337/337
f 322/322 337/337 323/323
f 359/359 367/367 368/368
f 367/367 375/375 376/376
f 367/367 376/376 368/368
f 375/375 385/385 379/379
f 375/375 379/379 376/376
f 385/385 387/387 386/386
f 385/385 386/386 379/379
f 19/19 29/29 22/22
f 29/29 33/33 31/31
f 29/29 31/31 22/22
f 51/51 74/74 75/75
f 51/51 75/75 52/52
f 74/74 100/100 101/101
f 74/74 101/101 75/75
f 100/100 125/125 126/126
f 100/100 126/126 101/101
f 125/125 150/150 151/151
f 125/125 151/151 126/126
f 150/150 175/175 176/176
f 150/150 176/176 151/151
f 175/175 197/197 198/198
f 175/175 198/198 176/176
f 197/197 221/221 222/222
f 197/197 222/222 198/198
f 221/221 249/249 250/250
f 221/221 250/250 222/222
f 249/249 274/274 275/275
f 249/249 275/275 250/250
f 274/274 299/299 300/300
f 274/274 300/300 275/275
f 299/299 323/323 324/324
f 299/299 324/324 300/300
f 323/323 337/337 338/338
f 323/323 338/338 324/324
f 368/368 376/376 377/377
f 376/376 379/379 378/378
f 376/376 378/378 377/377
f 52/52 75/75 76/76
f 52/52 76/76 53/53
f 75/75 101/101 102/102
f 75/75 102/102 76/76
f 101/101 126/126 127/127
f 101/101 127/127 102/102
f 126/126 151/151 152/152
f 126/126 152/152 127/127
f 151/151 176/176 177/177
f 151/151 177/177 152/152
f 176/176 198/198 199/199
f 176/176 199/199 177/177
f 198/198 222/222 223/223
f 198/198 223/223 199/199
f 222/222 250/250 251/251
f 222/222 251/251 223/223
f 250/250 275/275 276/276
f 250/250 276/276 251/251
f 275/275 300/300 301/301
f 275/275 301/301 276/276
f 300/300 324/324 325/325
f 300/300 325/325 301/301
f 324/324 338/338 339/339
f 324/324 339/339 325/325
f 53/53 76/76 77/77
f 53/53 77/77 54/54
f 76/76 102/102 103/103
f 76/76 103/103 77/77
f 102/102 127/127 128/128
f 102/102 128/128 103/103
f 127/127 152/152 153/153
f 127/127 153/153 128/128
f 152/152 177/177 178/178
f 152/152 178/178 153/153
f 177/177 199/199 200/200
f 177/177 200/200 178/178
f 199/199 223/223 224/224
f 199/199 224/224 200/200
f 223/223 251/251 252/252
f 223/223 252/252 224/224
f 251/251 276/276 277/277
f 251/251 277/277 252/252
f 276/276 301/301 302/302
f 276/276 302/302 277/277
f 301/301 325/325 326/326
f 301/301 326/326 302/302
f 325/325 339/339 340/340
f 325/325 340/340 326/326
f 54/54 77/77 78/78
f 54/54 78/78 55/55
f 77/77 103/103 104/104
f 77/77 104/104 78/78
f 103/103 128/128 129/129
f 103/103 129/129 104/104
f 128/128 153/153 154/154
f 128/128 154/154 129/129
f 153/153 178/178 179/179
f 153/153 179/179 154/154
f 178/178 200/200 201/201
f 178/178 201/201 179/179
f 200/200 224/224 225/225
f 200/200 225/225 201/201
f 224/224 252/252 253/253
f 224/224 253/253 225/225
f 252/252 277/277 278/278
f 252/252 278/278 253/253
f 277/277 302/302 303/303
f 277/277 303/303 278/278
f 302/302 326/326 327/327
f 302/302 327/327 303/303
f 326/326 340/340 341/341
f 326/326 341/341 327/327
f 55/55 78/78 79/79
f 55/55 79/79 56/56
f 78/78 104/104 105/105
f 78/78 105/105 79/79
f 104/104 129/129 130/130
f 104/104 130/130 105/105
f 129/129 154/154 155/155
f 129/129 155/155 130/130
f 154/154 179/179 180/180
f 154/154 180/180 155/155
f 179/179 201/201 202/202
f 179/179 202/202 180/180
f 201/201 225/225 226/226
f 201/201 226/226 202/202
f 225/225 253/253 254/254
f 225/225 254/254 226/226
f 253/253 278/278 279/279
f 253/253 279/279 254/254
f 278/278 303/303 304/304
f 278/278 304/304 279/279
f 303/303 327/327 328/328
f 303/303 328/328 304/304
f 327/327 341/341 342/342
f 327/327 342/342 328/328
f 56/56 79/79 80/80
f 56/56 80/80 57/57
f 79/79 105/105 106/106
f 79/79 106/106 80/80
f 105/105 130/130 131/131
f 105/105 131/131 106/106
f 130/130 155/155 156/156
f 130/130 156/156 131/131
f 155/155 180/180 181/181
f 155/155 181/181 156/156
f 180/180 202/202 203/203
f 180/180 203/203 181/181
f 202/202 226/226 227/227
f 202/202 227/227 203/203
f 226/226 254/254 255/255
f 226/226 255/255 227/227
f 254/254 279/279 280/280
f 254/254 280/280 255/255
f 279/279 304/304 305/305
f 279/279 305/305 280/280
f 304/304 328/328 329/329
f 304/304 329/329 305/305
f 328/328 342/342 343/343
f 328/328 343/343 329/329
f 57/57 80/80 81/81
f 57/57 81/81 58/58
f 80/80 106/106 107/107
f 80/80 107/107 81/81
f 106/106 131/131 132/132
f 106/106 132/132 107/107
f 131/131 156/156 157/157
f 131/131 157/157 132/132
f 156/156 181/181 182/182
f 156/156 182/182 157/157
f 181/181 203/203 204/204
f 181/181 204/204 182/182
f 203/203 227/227 228/228
f 203/203 228/228 204/204
f 227/227 255/255 256/256
f 227/227 256/256 228/228
f 255/255 280/280 281/281
f 255/255 281/281 256/256
f 280/280 305/305 306/306
f 280/280 306/306 281/281
f 305/305 329/329 330/330
f 305/305 330/330 306/306
f 329/329 343/343 344/344
f 329/329 344/344 330/330
f 58/58 81/81 82/82
f 58/58 82/82 59/59
f 81/81 107/107 108/108
f 81/81 108/108 82/82
f 107/107 132/132 133/133
f 107/107 133/133 108/108
f 132/132 157/157 158/158
f 132/132 158/158 133/133
f 157/157 182/182 183/183
f 157/157 183/183 158/158
f 182/182 204/204 205/205
f 182/182 205/205 183/183
f 204/204 228/228 229/229
f 204/204 229/229 205/205
f 228/228 256/256 257/257
f 228/228 257/257 229/229
f 256/256 281/281 282/282
f 256/256 282/282 257/257
f 281/281 306/306 307/307
f 281/281 307/307 282/282
f 306/306 330/330 331/331
f 306/306 331/331 307/307
f 330/330 344/344 345/345
f 330/330 345/345 331/331
f 59/59 82/82 83/83
f 59/59 83/83 60/60
f 82/82 108/108 109/109
f 82/82 109/109 83/83
f 108/108 133/133 134/134
f 108/108 134/134 109/109
f 133/133 158/158 159/159
f 133/133 159/159 134/134
f 158/158 183/183 184/184
f 158/158 184/184 159/159
f 183/183 205/205 206/206
f 183/183 206/206 184/184
f 205/205 229/229 230/230
f 205/205 230/230 206/206
f 229/229 257/257 258/258
f 229/229 258/258 230/230
f 257/257 282/282 283/283
f 257/257 283/283 258/258
f 282/282 307/307 308/308
f 282/282 308/308 283/283
f 307/307 331/331 332/332
f 307/307 332/332 308/308
f 331/331 345/345 346/346
f 331/331 346/346 332/332
f 60/60 83/83 84/84
f 60/60 84/84 61/61
f 83/83 109/109 110/110
f 83/83 110/110 84/84
f 109/109 134/134 135/135
f 109/109 135/135 110/110
f 134/134 159/159 160/160
f 134/134 160/160 135/135
f 159/159 184/184 185/185
f 159/159 185/185 160/160
f 184/184 206/206 207/207
f 184/184 207/207 185/185
f 206/206 230/230 231/231
f 206/206 231/231 207/207
f 230/230 258/258 259/259
f 230/230 259/259 231/231
f 258/258 283/283 284/284
f 258/258 284/284 259/259
f 283/283 308/308 309/309
f 283/283 309/309 284/284
f 308/308 332/332 333/333
f 308/308 333/333 309/309
f 332/332 346/346 347/347
f 332/332 347/347 333/333
f 61/61 84/84 85/85
f 61/61 85/85 62/62
f 84/84 110/110 111/111
f 84/84 111/111 85/85
f 110/110 135/135 136/136
f 110/110 136/136 111/111
f 135/135 160/160 161/161
f 135/135 161/161 136/136
f 160/160 185/185 186/186
f 160/160 186/186 161/161
f 185/185 207/207 208/208
f 185/185 208/208 186/186
f 207/207 231/231 232/232
f 207/207 232/232 208/208
f 231/231 259/259 260/260
f 231/231 260/260 232/232
f 259/259 284/284 285/285
f 259/259 285/285 260/260
f 284/284 309/309 310/310
f 284/284 310/310 285/285
f 309/309 333/333 334/334
f 309/309 334/334 310/310
f 333/333 347/347 348/348
f 333/333 348/348 334/334
f 62/62 85/85 86/86
f 62/62 86/86 63/63
f 85/85 111/111 112/112
f 85/85 112/112 86/86
f 111/111 136/136 137/137
f 111/111 137/137 112/112
f 136/136 161/161 162/162
f 136/136 162/162 137/137
f 161/161 186/186 187/187
f 161/161 187/187 162/162
f 186/186 208/208 209/209
f 186/186 209/209 187/187
f 208/208 232/232 233/233
f 208/208 233/233 209/209
f 232/232 260/260 261/261
f 232/232 261/261 233/233
f 260/260 285/285 286/286
f 260/260 286/286 261/261
f 285/285 310/310 311/311
f 285/285 311/311 286/286
f 310/310 334/334 335/335
f 310/310 335/335 311/311
f 334/334 348/348 349/349
f 334/334 349/349 335/335
f 63/63 86/86 87/87
f 63/63 87/87 64/64
f 86/86 112/112 113/113
f 86/86 113/113 87/87
f 112/112 137/137 138/138
f 112/112 138/138 113/113
f 137/137 162/162 163/163
f 137/137 163/163 138/138
f 162/162 187/187 188/188
f 162/162 188/188 163/163
f 187/187 209/209 210/210
f 187/187 210/210 188/188
f 209/209 233/233 234/234
f 209/209 234/234 210/210
f 233/233 261/261 262/262
f 233/233 262/262 234/234
f 261/261 286/286 287/287
f 261/261 287/287 262/262
f 286/286 311/311 312/312
f 286/286 312/312 287/287
f 311/311 335/335 336/336
f 311/311 336/336 312/312
f 335/335 349/349 350/350
f 335/335 350/350 336/336
f 64/64 87/87 88/88
f 87/87 113/113 115/115
f 87/87 115/115 88/88
f 113/113 138/138 140/140
f 113/113 140/140 115/115
f 138/138 163/163 165/165
f 138/138 165/165 140/140
f 163/163 188/188 189/189
f 163/163 189/189 165/165
f 188/188 210/210 212/212
f 188/188 212/212 189/189
f 210/210 234/234 213/213
f 210/210 213/213 212/212
f 234/234 262/262 239/239
f 234/234 239/239 213/213
f 262/262 287/287 264/264
f 262/262 264/264 239/239
f 287/287 312/312 289/289
f 287/287 289/289 264/264
f 312/312 336/336 314/314
f 312/312 314/314 289/289
f 336/336 350/350 351/351
f 336/336 351/351 314/314
f 488/488 511/511 487/487
f 486/486 488/488 487/487
f 513/513 536/536 511/511
f 488/488 513/513 511/511
f 538/538 561/561 536/536
f 513/513 538/538 536/536
f 538/538 563/563 561/561
f 637/637 635/635 634/634
f 633/633 637/637 634/634
f 662/662 660/660 635/635
f 637/637 662/662 635/635
f 687/687 685/685 660/660
f 662/662 687/687 660/660
f 687/687 710/710 685/685
f 441/441 462/462 439/439
f 438/438 441/441 439/439
f 463/463 486/486 462/462
f 441/441 463/463 462/462
f 489/489 488/488 486/486
f 463/463 489/489 486/486
f 514/514 513/513 488/488
f 489/489 514/514 488/488
f 539/539 538/538 513/513
f 514/514 539/539 513/513
f 564/564 563/563 538/538
f 539/539 564/564 538/538
f 638/638 637/637 633/633
f 632/632 638/638 633/633
f 663/663 662/662 637/637
f 638/638 663/663 637/637
f 688/688 687/687 662/662
f 663/663 688/688 662/662
f 712/712 710/710 687/687
f 688/688 712/712 687/687
f 712/712 749/749 710/710
f 431/431 438/438 429/429
f 427/427 431/431 429/429
f 442/442 441/441 438/438
f 431/431 442/442 438/438
f 464/464 463/463 441/441
f 442/442 464/464 441/441
f 490/490 489/489 463/463
f 464/464 490/490 463/463
f 515/515 514/514 489/489
f 490/490 515/515 489/489
f 540/540 539/539 514/514
f 515/515 540/540 514/514
f 565/565 564/564 539/539
f 540/540 565/565 539/539
f 587/587 608/608 564/564
f 565/565 587/587 564/564
f 611/611 632/632 608/608
f 587/587 611/611 608/608
f 639/639 638/638 632/632
f 611/611 639/639 632/632
f 664/664 663/663 638/638
f 639/639 664/664 638/638
f 689/689 688/688 663/663
f 664/664 689/689 663/663
f 713/713 712/712 688/688
f 689/689 713/713 688/688
f 750/750 749/749 712/712
f 713/713 750/750 712/712
f 758/758 757/757 749/749
f 750/750 758/758 749/749
f 758/758 766/766 757/757
f 420/420 427/427 418/418
f 417/417 420/420 418/418
f 432/432 431/431 427/427
f 420/420 432/432 427/427
f 443/443 442/442 431/431
f 432/432 443/443 431/431
f 465/465 464/464 442/442
f 443/443 465/465 442/442
f 491/491 490/490 464/464
f 465/465 491/491 464/464
f 516/516 515/515 490/490
f 491/491 516/516 490/490
f 541/541 540/540 515/515
f 516/516 541/541 515/515
f 566/566 565/565 540/540
f 541/541 566/566 540/540
f 588/588 587/587 565/565
f 566/566 588/588 565/565
f 612/612 611/611 587/587
f 588/588 612/612 587/587
f 640/640 639/639 611/611
f 612/612 640/640 611/611
f 665/665 664/664 639/639
f 640/640 665/665 639/639
f 690/690 689/689 664/664
f 665/665 690/690 664/664
f 714/714 713/713 689/689
f 690/690 714/714 689/689
f 751/751 750/750 713/713
f 714/714 751/751 713/713
f 759/759 758/758 750/750
f 751/751 759/759 750/750
f 767/767 766/766 758/758
f 759/759 767/767 758/758
f 767/767 777/777 766/766
f 411/411 417/417 410/410
f 408/408 411/411 410/410
f 421/421 420/420 417/417
f 411/411 421/421 417/417
f 433/433 432/432 420/420
f 421/421 433/433 420/420
f 444/444 443/443 432/432
f 433/433 444/444 432/432
f 466/466 465/465 443/443
f 444/444 466/466 443/443
f 492/492 491/491 465/465
f 466/466 492/492 465/465
f 517/517 516/516 491/491
f 492/492 517/517 491/491
f 542/542 541/541 516/516
f 517/517 542/542 516/516
f 567/567 566/566 541/541
f 542/542 567/567 541/541
f 589/589 588/588 566/566
f 567/567 589/589 566/566
f 613/613 612/612 588/588
f 589/589 613/613 588/588
f 641/641 640/640 612/612
f 613/613 641/641 612/612
f 666/666 665/665 640/640
f 641/641 666/666 640/640
f 691/691 690/690 665/665
f 666/666 691/691 665/665
f 715/715 714/714 690/690
f 691/691 715/715 690/690
f 752/752 751/751 714/714
f 715/715 752/752 714/714
f 760/760 759/759 751/751
f 752/752 760/760 751/751
f 768/768 767/767 759/759
f 760/760 768/768 759/759
f 778/778 777/777 767/767
f 768/768 778/778 767/767
f 778/778 785/785 777/777
f 401/401 404/404 400/400
f 398/398 401/401 400/400
f 405/405 408/408 404/404
f 401/401 405/405 404/404
f 412/412 411/411 408/408
f 405/405 412/412 408/408
f 422/422 421/421 411/411
f 412/412 422/422 411/411
f 434/434 433/433 421/421
f 422/422 434/434 421/421
f 445/445 444/444 433/433
f 434/434 445/445 433/433
f 467/467 466/466 444/444
f 445/445 467/467 444/444
f 493/493 492/492 466/466
f 467/467 493/493 466/466
f 518/518 517/517 492/492
f 493/493 518/518 492/492
f 543/543 542/542 517/517
f 518/518 543/543 517/517
f 568/568 567/567 542/542
f 543/543 568/568 542/542
f 590/590 589/589 567/567
f 568/568 590/590 567/567
f 614/614 613/613 589/589
f 590/590 614/614 589/589
f 642/642 641/641 613/613
f 614/614 642/642 613/613
f 667/667 666/666 641/641
f 642/642 667/667 641/641
f 692/692 691/691 666/666
f 667/667 692/692 666/666
f 716/716 715/715 691/691
f 692/692 716/716 691/691
f 753/753 752/752 715/715
f 716/716 753/753 715/715
f 761/761 760/760 752/752
f 753/753 761/761 752/752
f 769/769 768/768 760/760
f 761/761 769/769 760/760
f 779/779 778/778 768/768
f 769/769 779/779 768/768
f 786/786 785/785 778/778
f 779/779 786/786 778/778
f 786/786 792/792 785/785
f 402/402 401/401 398/398
f 399/399 402/402 398/398
f 406/406 405/405 401/401
f 402/402 406/406 401/401
f 413/413 412/412 405/405
f 406/406 413/413 405/405
f 423/423 422/422 412/412
f 413/413 423/423 412/412
f 435/435 434/434 422/422
f 423/423 435/435 422/422
f 446/446 445/445 434/434
f 435/435 446/446 434/434
f 468/468 467/467 445/445
f 446/446 468/468 445/445
f 494/494 493/493 467/467
f 468/468 494/494 467/467
f 519/519 518/518 493/493
f 494/494 519/519 493/493
f 544/544 543/543 518/518
f 519/519 544/544 518/518
f 569/569 568/568 543/543
f 544/544 569/569 543/543
f 591/591 590/590 568/568
f 569/569 591/591 568/568
f 615/615 614/614 590/590
f 591/591 615/615 590/590
f 643/643 642/642 614/614
f 615/615 643/643 614/614
f 668/668 667/667 642/642
f 643/643 668/668 642/642
f 693/693 692/692 667/667
f 668/668 693/693 667/667
f 717/717 716/716 692/692
f 693/693 717/717 692/692
f 754/754 753/753 716/716
f 717/717 754/754 716/716
f 762/762 761/761 753/753
f 754/754 762/762 753/753
f 770/770 769/769 761/761
f 762/762 770/770 761/761
f 780/780 779/779 769/769
f 770/770 780/780 769/769
f 787/787 786/786 779/779
f 780/780 787/787 779/779
f 793/793 792/792 786/786
f 787/787 793/793 786/786
f 793/793 794/794 792/792
f 403/403 402/402 399/399
f 407/407 406/406 402/402
f 403/403 407/407 402/402
f 414/414 413/413 406/406
f 407/407 414/414 406/406
f 424/424 423/423 413/413
f 414/414 424/424 413/413
f 436/436 435/435 423/423
f 424/424 436/436 423/423
f 447/447 446/446 435/435
f 436/436 447/447 435/435
f 469/469 468/468 446/446
f 447/447 469/469 446/446
f 495/495 494/494 468/468
f 469/469 495/495 468/468
f 520/520 519/519 494/494
f 495/495 520/520 494/494
f 545/545 544/544 519/519
f 520/520 545/545 519/519
f 570/570 569/569 544/544
f 545/545 570/570 544/544
f 592/592 591/591 569/569
f 570/570 592/592 569/569
f 616/616 615/615 591/591
f 592/592 616/616 591/591
f 644/644 643/643 615/615
f 616/616 644/644 615/615
f 669/669 668/668 643/643
f 644/644 669/669 643/643
f 694/694 693/693 668/668
f 669/669 694/694 668/668
f 718/718 717/717 693/693
f 694/694 718/718 693/693
f 755/755 754/754 717/717
f 718/718 755/755 717/717
f 763/763 762/762 754/754
f 755/755 763/763 754/754
f 771/771 770/770 762/762
f 763/763 771/771 762/762
f 781/781 780/780 770/770
f 771/771 781/781 770/770
f 788/788 787/787 780/780
f 781/781 788/788 780/780
f 790/790 793/793 787/787
f 788/788 790/790 787/787
f 791/791 794/794 793/793
f 790/790 791/791 793/793
f 409/409 407/407 403/403
f 415/415 414/414 407/407
f 409/409 415/415 407/407
f 425/425 424/424 414/414
f 415/415 425/425 414/414
f 437/437 436/436 424/424
f 425/425 437/437 424/424
f 440/440 447/447 436/436
f 437/437 440/440 436/436
f 470/470 469/469 447/447
f 440/440 470/470 447/447
f 496/496 495/495 469/469
f 470/470 496/496 469/469
f 521/521 520/520 495/495
f 496/496 521/521 495/495
f 546/546 545/545 520/520
f 521/521 546/546 520/520
f 571/571 570/570 545/545
f 546/546 571/571 545/545
f 593/593 592/592 570/570
f 571/571 593/593 570/570
f 617/617 616/616 592/592
f 593/593 617/617 592/592
f 645/645 644/644 616/616
f 617/617 645/645 616/616
f 670/670 669/669 644/644
f 645/645 670/670 644/644
f 695/695 694/694 669/669
f 670/670 695/695 669/669
f 719/719 718/718 694/694
f 695/695 719/719 694/694
f 756/756 755/755 718/718
f 719/719 756/756 718/718
f 764/764 763/763 755/755
f 756/756 764/764 755/755
f 772/772 771/771 763/763
f 764/764 772/772 763/763
f 782/782 781/781 771/771
f 772/772 782/782 771/771
f 784/784 788/788 781/781
f 782/782 784/784 781/781
f 789/789 790/790 788/788
f 784/784 789/789 788/788
f 416/416 415/415 409/409
f 426/426 425/425 415/415
f 416/416 426/426 415/415
f 430/430 437/437 425/425
f 426/426 430/430 425/425
f 448/448 440/440 437/437
f 430/430 448/448 437/437
f 471/471 470/470 440/440
f 448/448 471/471 440/440
f 497/497 496/496 470/470
f 471/471 497/497 470/470
f 522/522 521/521 496/496
f 497/497 522/522 496/496
f 547/547 546/546 521/521
f 522/522 547/547 521/521
f 572/572 571/571 546/546
f 547/547 572/572 546/546
f 594/594 593/593 571/571
f 572/572 594/594 571/571
f 618/618 617/617 593/593
f 594/594 618/618 593/593
f 646/646 645/645 617/617
f 618/618 646/646 617/617
f 671/671 670/670 645/645
f 646/646 671/671 645/645
f 696/696 695/695 670/670
f 671/671 696/696 670/670
f 720/720 719/719 695/695
f 696/696 720/720 695/695
f 734/734 756/756 719/719
f 720/720 734/734 719/719
f 765/765 764/764 756/756
f 773/773 772/772 764/764
f 765/765 773/773 764/764
f 776/776 782/782 772/772
f 773/773 776/776 772/772
f 783/783 784/784 782/782
f 776/776 783/783 782/782
f 419/419 426/426 416/416
f 428/428 430/430 426/426
f 419/419 428/428 426/426
f 472/472 471/471 448/448
f 449/449 472/472 448/448
f 498/498 497/497 471/471
f 472/472 498/498 471/471
f 523/523 522/522 497/497
f 498/498 523/523 497/497
f 548/548 547/547 522/522
f 523/523 548/548 522/522
f 573/573 572/572 547/547
f 548/548 573/573 547/547
f 595/595 594/594 572/572
f 573/573 595/595 572/572
f 619/619 618/618 594/594
f 595/595 619/619 594/594
f 647/647 646/646 618/618
f 619/619 647/647 618/618
f 672/672 671/671 646/646
f 647/647 672/672 646/646
f 697/697 696/696 671/671
f 672/672 697/697 671/671
f 721/721 720/720 696/696
f 697/697 721/721 696/696
f 735/735 734/734 720/720
f 721/721 735/735 720/720
f 774/774 773/773 765/765
f 775/775 776/776 773/773
f 774/774 775/775 773/773
f 473/473 472/472 449/449
f 450/450 473/473 449/449
f 499/499 498/498 472/472
f 473/473 499/499 472/472
f 524/524 523/523 498/498
f 499/499 524/524 498/498
f 549/549 548/548 523/523
f 524/524 549/549 523/523
f 574/574 573/573 548/548
f 549/549 574/574 548/548
f 596/596 595/595 573/573
f 574/574 596/596 573/573
f 620/620 619/619 595/595
f 596/596 620/620 595/595
f 648/648 647/647 619/619
f 620/620 648/648 619/619
f 673/673 672/672 647/647
f 648/648 673/673 647/647
f 698/698 697/697 672/672
f 673/673 698/698 672/672
f 722/722 721/721 697/697
f 698/698 722/722 697/697
f 736/736 735/735 721/721
f 722/722 736/736 721/721
f 474/474 473/473 450/450
f 451/451 474/474 450/450
f 500/500 499/499 473/473
f 474/474 500/500 473/473
f 525/525 524/524 499/499
f 500/500 525/525 499/499
f 550/550 549/549 524/524
f 525/525 550/550 524/524
f 575/575 574/574 549/549
f 550/550 575/575 549/549
f 597/597 596/596 574/574
f 575/575 597/597 574/574
f 621/621 620/620 596/596
f 597/597 621/621 596/596
f 649/649 648/648 620/620
f 621/621 649/649 620/620
f 674/674 673/673 648/648
f 649/649 674/674 648/648
f 699/699 698/698 673/673
f 674/674 699/699 673/673
f 723/723 722/722 698/698
f 699/699 723/723 698/698
f 737/737 736/736 722/722
f 723/723 737/737 722/722
f 475/475 474/474 451/451
f 452/452 475/475 451/451
f 501/501 500/500 474/474
f 475/475 501/501 474/474
f 526/526 525/525 500/500
f 501/501 526/526 500/500
f 551/551 550/550 525/525
f 526/526 551/551 525/525
f 576/576 575/575 550/550
f 551/551 576/576 550/550
f 598/598 597/597 575/575
f 576/576 598/598 575/575
f 622/622 621/621 597/597
f 598/598 622/622 597/597
f 650/650 649/649 621/621
f 622/622 650/650 621/621
f 675/675 674/674 649/649
f 650/650 675/675 649/649
f 700/700 699/699 674/674
f 675/675 700/700 674/674
f 724/724 723/723 699/699
f 700/700 724/724 699/699
f 738/738 737/737 723/723
f 724/724 738/738 723/723
f 476/476 475/475 452/452
f 453/453 476/476 452/452
f 502/502 501/501 475/475
f 476/476 502/502 475/475
f 527/527 526/526 501/501
f 502/502 527/527 501/501
f 552/552 551/551 526/526
f 527/527 552/552 526/526
f 577/577 576/576 551/551
f 552/552 577/577 551/551
f 599/599 598/598 576/576
f 577/577 599/599 576/576
f 623/623 622/622 598/598
f 599/599 623/623 598/598
f 651/651 650/650 622/622
f 623/623 651/651 622/622
f 676/676 675/675 650/650
f 651/651 676/676 650/650
f 701/701 700/700 675/675
f 676/676 701/701 675/675
f 725/725 724/724 700/700
f 701/701 725/725 700/700
f 739/739 738/738 724/724
f 725/725 739/739 724/724
f 477/477 476/476 453/453
f 454/454 477/477 453/453
f 503/503 502/502 476/476
f 477/477 503/503 476/476
f 528/528 527/527 502/502
f 503/503 528/528 502/502
f 553/553 552/552 527/527
f 528/528 553/553 527/527
f 578/578 577/577 552/552
f 553/553 578/578 552/552
f 600/600 599/599 577/577
f 578/578 600/600 577/577
f 624/624 623/623 599/599
f 600/600 624/624 599/599
f 652/652 651/651 623/623
f 624/624 652/652 623/623
f 677/677 676/676 651/651
f 652/652 677/677 651/651
f 702/702 701/701 676/676
f 677/677 702/702 676/676
f 726/726 725/725 701/701
f 702/702 726/726 701/701
f 740/740 739/739 725/725
f 726/726 740/740 725/725
f 478/478 477/477 454/454
f 455/455 478/478 454/454
f 504/504 503/503 477/477
f 478/478 504/504 477/477
f 529/529 528/528 503/503
f 504/504 529/529 503/503
f 554/554 553/553 528/528
f 529/529 554/554 528/528
f 579/579 578/578 553/553
f 554/554 579/579 553/553
f 601/601 600/600 578/578
f 579/579 601/601 578/578
f 625/625 624/624 600/600
f 601/601 625/625 600/600
f 653/653 652/652 624/624
f 625/625 653/653 624/624
f 678/678 677/677 652/652
f 653/653 678/678 652/652
f 703/703 702/702 677/677
f 678/678 703/703 677/677
f 727/727 726/726 702/702
f 703/703 727/727 702/702
f 741/741 740/740 726/726
f 727/727 741/741 726/726
f 479/479 478/478 455/455
f 456/456 479/479 455/455
f 505/505 504/504 478/478
f 479/479 505/505 478/478
f 530/530 529/529 504/504
f 505/505 530/530 504/504
f 555/555 554/554 529/529
f 530/530 555/555 529/529
f 580/580 579/579 554/554
f 555/555 580/580 554/554
f 602/602 601/601 579/579
f 580/580 602/602 579/579
f 626/626 625/625 601/601
f 602/602 626/626 601/601
f 654/654 653/653 625/625
f 626/626 654/654 625/625
f 679/679 678/678 653/653
f 654/654 679/679 653/653
f 704/704 703/703 678/678
f 679/679 704/704 678/678
f 728/728 727/727 703/703
f 704/704 728/728 703/703
f 742/742 741/741 727/727
f 728/728 742/742 727/727
f 480/480 479/479 456/456
f 457/457 480/480 456/456
f 506/506 505/505 479/479
f 480/480 506/506 479/479
f 531/531 530/530 505/505
f 506/506 531/531 505/505
f 556/556 555/555 530/530
f 531/531 556/556 530/530
f 581/581 580/580 555/555
f 556/556 581/581 555/555
f 603/603 602/602 580/580
f 581/581 603/603 580/580
f 627/627 626/626 602/602
f 603/603 627/627 602/602
f 655/655 654/654 626/626
f 627/627 655/655 626/626
f 680/680 679/679 654/654
f 655/655 680/680 654/654
f 705/705 704/704 679/679
f 680/680 705/705 679/679
f 729/729 728/728 704/704
f 705/705 729/729 704/704
f 743/743 742/742 728/728
f 729/729 743/743 728/728
f 481/481 480/480 457/457
f 458/458 481/481 457/457
f 507/507 506/506 480/480
f 481/481 507/507 480/480
f 532/532 531/531 506/506
f 507/507 532/532 506/506
f 557/557 556/556 531/531
f 532/532 557/557 531/531
f 582/582 581/581 556/556
f 557/557 582/582 556/556
f 604/604 603/603 581/581
f 582/582 604/604 581/581
f 628/628 627/627 603/603
f 604/604 628/628 603/603
f 656/656 655/655 627/627
f 628/628 656/656 627/627
f 681/681 680/680 655/655
f 656/656 681/681 655/655
f 706/706 705/705 680/680
f 681/681 706/706 680/680
f 730/730 729/729 705/705
f 706/706 730/730 705/705
f 744/744 743/743 729/729
f 730/730 744/744 729/729
f 482/482 481/481 458/458
f 459/459 482/482 458/458
f 508/508 507/507 481/481
f 482/482 508/508 481/481
f 533/533 532/532 507/507
f 508/508 533/533 507/507
f 558/558 557/557 532/532
f 533/533 558/558 532/532
f 583/583 582/582 557/557
f 558/558 583/583 557/557
f 605/605 604/604 582/582
f 583/583 605/605 582/582
f 629/629 628/628 604/604
f 605/605 629/629 604/604
f 657/657 656/656 628/628
f 629/629 657/657 628/628
f 682/682 681/681 656/656
f 657/657 682/682 656/656
f 707/707 706/706 681/681
f 682/682 707/707 681/681
f 731/731 730/730 706/706
f 707/707 731/731 706/706
f 745/745 744/744 730/730
f 731/731 745/745 730/730
f 483/483 482/482 459/459
f 460/460 483/483 459/459
f 509/509 508/508 482/482
f 483/483 509/509 482/482
f 534/534 533/533 508/508
f 509/509 534/534 508/508
f 559/559 558/558 533/533
f 534/534 559/559 533/533
f 584/584 583/583 558/558
f 559/559 584/584 558/558
f 606/606 605/605 583/583
f 584/584 606/606 583/583
f 630/630 629/629 605/605
f 606/606 630/630 605/605
f 658/658 657/657 629/629
f 630/630 658/658 629/629
f 683/683 682/682 657/657
f 658/658 683/683 657/657
f 708/708 707/707 682/682
f 683/683 708/708 682/682
f 732/732 731/731 707/707
f 708/708 732/732 707/707
f 746/746 745/745 731/731
f 732/732 746/746 731/731
f 484/484 483/483 460/460
f 461/461 484/484 460/460
f 510/510 509/509 483/483
f 484/484 510/510 483/483
f 535/535 534/534 509/509
f 510/510 535/535 509/509
f 560/560 559/559 534/534
f 535/535 560/560 534/534
f 585/585 584/584 559/559
f 560/560 585/585 559/559
f 607/607 606/606 584/584
f 585/585 607/607 584/584
f 631/631 630/630 606/606
f 607/607 631/631 606/606
f 659/659 658/658 630/630
f 631/631 659/659 630/630
f 684/684 683/683 658/658
f 659/659 684/684 658/658
f 709/709 708/708 683/683
f 684/684 709/709 683/683
f 733/733 732/732 708/708
f 709/709 733/733 708/708
f 747/747 746/746 732/732
f 733/733 747/747 732/732
f 485/485 484/484 461/461
f 512/512 510/510 484/484
f 485/485 512/512 484/484
f 537/537 535/535 510/510
f 512/512 537/537 510/510
f 562/562 560/560 535/535
f 537/537 562/562 535/535
f 586/586 585/585 560/560
f 562/562 586/586 560/560
f 609/609 607/607 585/585
f 586/586 609/609 585/585
f 610/610 631/631 607/607
f 609/609 610/610 607/607
f 636/636 659/659 631/631
f 610/610 636/636 631/631
f 661/661 684/684 659/659
f 636/636 661/661 659/659
f 686/686 709/709 684/684
f 661/661 686/686 684/684
f 711/711 733/733 709/709
f 686/686 711/711 709/709
f 748/748 747/747 733/733
f 711/711 748/748 733/733
f 90/90 511/511 114/114
f 90/90 487/487 511/511
f 89/89 487/487 90/90
f 89/89 486/486 487/487
f 114/114 536/536 139/139
f 114/114 511/511 536/536
f 139/139 561/561 164/164
f 139/139 536/536 561/561
f 164/164 563/563 166/166
f 164/164 561/561 563/563
f 237/237 635/635 238/238
f 237/237 634/634 635/635
f 236/236 634/634 237/237
f 236/236 633/633 634/634
f 238/238 660/660 263/263
f 238/238 635/635 660/660
f 263/263 685/685 288/288
f 263/263 660/660 685/685
f 288/288 710/710 313/313
f 288/288 685/685 710/710
f 42/42 462/462 65/65
f 42/42 439/439 462/462
f 41/41 439/439 42/42
f 41/41 438/438 439/439
f 65/65 486/486 89/89
f 65/65 462/462 486/486
f 166/166 564/564 167/167
f 166/166 563/563 564/564
f 235/235 633/633 236/236
f 235/235 632/632 633/633
f 313/313 749/749 352/352
f 313/313 710/710 749/749
f 32/32 438/438 41/41
f 32/32 429/429 438/438
f 30/30 429/429 32/32
f 30/30 427/427 429/429
f 167/167 608/608 211/211
f 167/167 564/564 608/608
f 211/211 632/632 235/235
f 211/211 608/608 632/632
f 352/352 757/757 360/360
f 352/352 749/749 757/757
f 360/360 766/766 369/369
f 360/360 757/757 766/766
f 21/21 427/427 30/30
f 21/21 418/418 427/427
f 20/20 418/418 21/21
f 20/20 417/417 418/418
f 369/369 777/777 380/380
f 369/369 766/766 777/777
f 13/13 417/417 20/20
f 13/13 410/410 417/417
f 11/11 410/410 13/13
f 11/11 408/408 410/410
f 380/380 785/785 388/388
f 380/380 777/777 785/785
f 3/3 404/404 7/7
f 3/3 400/400 404/404
f 1/1 400/400 3/3
f 1/1 398/398 400/400
f 7/7 408/408 11/11
f 7/7 404/404 408/408
f 388/388 792/792 395/395
f 388/388 785/785 792/792
f 2/2 398/398 1/1
f 2/2 399/399 398/398
f 395/395 794/794 397/397
f 395/395 792/792 794/794
f 6/6 399/399 2/2
f 6/6 403/403 399/399
f 397/397 791/791 394/394
f 397/397 794/794 791/791
f 394/394 790/790 393/393
f 394/394 791/791 790/790
f 12/12 403/403 6/6
f 12/12 409/409 403/403
f 393/393 789/789 392/392
f 393/393 790/790 789/789
f 392/392 784/784 387/387
f 392/392 789/789 784/784
f 19/19 409/409 12/12
f 19/19 416/416 409/409
f 51/51 430/430 33/33
f 51/51 448/448 430/430
f 359/359 734/734 337/337
f 359/359 756/756 734/734
f 368/368 756/756 359/359
f 368/368 765/765 756/756
f 387/387 783/783 386/386
f 387/387 784/784 783/783
f 386/386 776/776 379/379
f 386/386 783/783 776/776
f 22/22 416/416 19/19
f 22/22 419/419 416/416
f 33/33 428/428 31/31
f 33/33 430/430 428/428
f 31/31 419/419 22/22
f 31/31 428/428 419/419
f 52/52 448/448 51/51
f 52/52 449/449 448/448
f 337/337 735/735 338/338
f 337/337 734/734 735/735
f 377/377 765/765 368/368
f 377/377 774/774 765/765
f 379/379 775/775 378/378
f 379/379 776/776 775/775
f 378/378 774/774 377/377
f 378/378 775/775 774/774
f 53/53 449/449 52/52
f 53/53 450/450 449/449
f 338/338 736/736 339/339
f 338/338 735/735 736/736
f 54/54 450/450 53/53
f 54/54 451/451 450/450
f 339/339 737/737 340/340
f 339/339 736/736 737/737
f 55/55 451/451 54/54
f 55/55 452/452 451/451
f 340/340 738/738 341/341
f 340/340 737/737 738/738
f 56/56 452/452 55/55
f 56/56 453/453 452/452
f 341/341 739/739 342/342
f 341/341 738/738 739/739
f 57/57 453/453 56/56
f 57/57 454/454 453/453
f 342/342 740/740 343/343
f 342/342 739/739 740/740
f 58/58 454/454 57/57
f 58/58 455/455 454/454
f 343/343 741/741 344/344
f 343/343 740/740 741/741
f 59/59 455/455 58/58
f 59/59 456/456 455/455
f 344/344 742/742 345/345
f 344/344 741/741 742/742
f 60/60 456/456 59/59
f 60/60 457/457 456/456
f 345/345 743/743 346/346
f 345/345 742/742 743/743
f 61/61 457/457 60/60
f 61/61 458/458 457/457
f 346/346 744/744 347/347
f 346/346 743/743 744/744
f 62/62 458/458 61/61
f 62/62 459/459 458/458
f 347/347 745/745 348/348
f 347/347 744/744 745/745
f 63/63 459/459 62/62
f 63/63 460/460 459/459
f 348/348 746/746 349/349
f 348/348 745/745 746/746
f 64/64 460/460 63/63
f 64/64 461/461 460/460
f 349/349 747/747 350/350
f 349/349 746/746 747/747
f 88/88 461/461 64/64
f 88/88 485/485 461/461
f 115/115 485/485 88/88
f 115/115 512/512 485/485
f 140/140 512/512 115/115
f 140/140 537/537 512/512
f 165/165 537/537 140/140
f 165/165 562/562 537/537
f 189/189 562/562 165/165
f 189/189 586/586 562/562
f 212/212 586/586 189/189
f 212/212 609/609 586/586
f 213/213 609/609 212/212
f 213/213 610/610 609/609
f 239/239 610/610 213/213
f 239/239 636/636 610/610
f 264/264 636/636 239/239
f 264/264 661/661 636/636
f 289/289 661/661 264/264
f 289/289 686/686 661/661
f 314/314 686/686 289/289
f 314/314 711/711 686/686
f 350/350 748/748 351/351
f 350/350 747/747 748/748
f 351/351 711/711 314/314
f 351/351 748/748 711/711
